<svg width="91" height="52" viewBox="0 0 91 52" fill="none" xmlns="http://www.w3.org/2000/svg">
<path d="M2 1C2 0.447715 1.55228 0 1 0C0.447715 0 0 0.447715 0 1H2ZM90.4405 38.34C90.6283 37.8206 90.3594 37.2474 89.84 37.0596L81.3762 33.9996C80.8568 33.8118 80.2836 34.0806 80.0958 34.6C79.908 35.1194 80.1768 35.6926 80.6962 35.8804L88.2196 38.6004L85.4996 46.1238C85.3118 46.6432 85.5807 47.2165 86.1 47.4043C86.6194 47.592 87.1927 47.3232 87.3805 46.8038L90.4405 38.34ZM1 1C0 1 1.78814e-07 1.00085 1.2517e-06 1.002C2.14577e-06 1.00278 4.35114e-06 1.00423 7.7486e-06 1.00579C1.46627e-05 1.00892 2.76566e-05 1.01323 5.20945e-05 1.01873C0.00010097 1.02971 0.000195444 1.04541 0.000377953 1.06572C0.000743032 1.10635 0.00146019 1.16545 0.00286895 1.24226C0.00568628 1.39588 0.0112702 1.62038 0.0223373 1.90969C0.0444693 2.48824 0.0885442 3.32636 0.176335 4.37539C0.351851 6.47266 0.702465 9.41734 1.40339 12.819C2.80257 19.6094 5.61112 28.287 11.2687 35.6707C16.9475 43.0819 25.4777 49.16 38.2145 50.7192C50.9136 52.2737 67.7034 49.3255 89.9246 38.9054L89.0755 37.0946C67.0466 47.4245 50.6489 50.2263 38.4575 48.734C26.3036 47.2462 18.24 41.4806 12.8563 34.4543C7.45139 27.4005 4.72868 19.0469 3.36224 12.4154C2.68035 9.1061 2.33956 6.24219 2.16937 4.2086C2.08431 3.19219 2.04196 2.38432 2.02088 1.83323C2.01034 1.55772 2.00512 1.34649 2.00253 1.20559C2.00124 1.13513 2.00061 1.08227 2.0003 1.04775C2.00014 1.03049 2.00007 1.01782 2.00003 1.00983C2.00001 1.00584 2.00001 1.00301 2 1.00137C2 1.00055 2 1.00021 2 0.999793C2 0.999748 2 1 1 1Z" fill="white"/>
</svg>
