<svg width="17" height="12" viewBox="0 0 17 12" fill="none" xmlns="http://www.w3.org/2000/svg">
<path fill-rule="evenodd" clip-rule="evenodd" d="M10.4004 6H14.4003C14.8419 6 15.2003 6.35839 15.2003 6.79998V9.9999C15.2003 10.4415 14.8419 10.7999 14.4003 10.7999H11.2004C10.7588 10.7999 10.4004 10.4415 10.4004 9.9999V6" fill="#0C9898"/>
<path d="M10.4004 6H14.4003C14.8419 6 15.2003 6.35839 15.2003 6.79998V9.9999C15.2003 10.4415 14.8419 10.7999 14.4003 10.7999H11.2004C10.7588 10.7999 10.4004 10.4415 10.4004 9.9999V6" stroke="#0C9898" stroke-width="2" stroke-linecap="round" stroke-linejoin="round"/>
<path d="M10.4004 6.00008C10.4004 2.80016 11.0004 2.26737 12.8003 1.2002" stroke="#0C9898" stroke-width="2" stroke-linecap="round" stroke-linejoin="round"/>
<path fill-rule="evenodd" clip-rule="evenodd" d="M1.59961 6H5.59951C6.0411 6 6.39949 6.35839 6.39949 6.79998V9.9999C6.39949 10.4415 6.0411 10.7999 5.59951 10.7999H2.39959C1.958 10.7999 1.59961 10.4415 1.59961 9.9999V6" fill="#0C9898"/>
<path d="M1.59961 6H5.59951C6.0411 6 6.39949 6.35839 6.39949 6.79998V9.9999C6.39949 10.4415 6.0411 10.7999 5.59951 10.7999H2.39959C1.958 10.7999 1.59961 10.4415 1.59961 9.9999V6" stroke="#0C9898" stroke-width="2" stroke-linecap="round" stroke-linejoin="round"/>
<path d="M1.59961 6.00008C1.59961 2.80016 2.1996 2.26737 3.99955 1.2002" stroke="#0C9898" stroke-width="2" stroke-linecap="round" stroke-linejoin="round"/>
</svg>
