<svg width="1216" height="458" viewBox="0 0 1216 458" fill="none" xmlns="http://www.w3.org/2000/svg">
<rect width="1216" height="458" rx="12" fill="#2BC4C3"/>
<mask id="mask0" mask-type="alpha" maskUnits="userSpaceOnUse" x="0" y="0" width="544" height="458">
<rect width="544" height="458" rx="12" fill="#2BC4C3"/>
</mask>
<g mask="url(#mask0)">
<path fill-rule="evenodd" clip-rule="evenodd" d="M456.95 200.528C442.654 210.081 425.788 215.22 408.527 215.22C385.469 215.22 363.267 205.997 346.796 189.724C330.392 173.385 321.234 151.249 321.234 128.125C321.234 110.864 326.373 93.998 335.926 79.7017C345.544 65.4054 359.116 54.2056 375.059 47.6174C391.003 41.0293 408.527 39.3164 425.459 42.6763C442.39 46.0363 457.938 54.3373 470.126 66.5254C482.315 78.7135 490.616 94.1956 493.976 111.127C497.335 127.993 495.623 145.517 489.034 161.461C482.446 177.338 471.312 190.976 456.95 200.528ZM349.367 260.085H467.69C474.014 260.085 480.141 262.588 484.555 267.134C489.035 271.614 491.539 277.675 491.539 284V286.964C491.605 329.655 481.393 371.688 461.826 409.636C439.69 452.59 406.354 488.825 365.31 514.387C324.332 539.949 277.095 553.982 228.738 554.97C77.869 557.935 -45 434.012 -45 283.209V169.497C-44.5388 147.822 -35.5789 127.202 -20.0968 112.049C-4.54876 96.8961 16.2698 88.3974 37.9448 88.3974C59.6857 88.3974 80.5043 96.8961 95.9864 112.049C111.534 127.202 120.428 147.822 120.89 169.497V287.294C120.89 297.703 122.471 308.046 125.567 317.994C125.577 318.024 125.586 318.054 125.595 318.083C132.919 341.301 148.389 361.163 169.115 374.06C189.868 386.972 214.507 391.979 238.686 388.29C262.864 384.601 284.869 372.347 300.812 353.834C316.755 335.321 325.518 311.736 325.518 287.294V283.934C325.518 277.609 328.021 271.548 332.501 267.068C336.981 262.588 343.042 260.085 349.367 260.085Z" fill="url(#paint0_linear)"/>
<mask id="path-4-inside-1" fill="white">
<path fill-rule="evenodd" clip-rule="evenodd" d="M456.95 199.528C442.654 209.081 425.788 214.22 408.527 214.22C385.469 214.22 363.267 204.997 346.796 188.724C330.392 172.385 321.234 150.249 321.234 127.125C321.234 109.864 326.373 92.998 335.926 78.7017C345.544 64.4054 359.116 53.2056 375.059 46.6174C391.003 40.0293 408.527 38.3164 425.459 41.6763C442.39 45.0363 457.938 53.3373 470.126 65.5254C482.315 77.7135 490.616 93.1956 493.976 110.127C497.335 126.993 495.623 144.517 489.034 160.461C482.446 176.338 471.312 189.976 456.95 199.528ZM349.367 259.085H467.69C474.014 259.085 480.141 261.588 484.555 266.134C489.035 270.614 491.539 276.675 491.539 283V285.964C491.605 328.655 481.393 370.688 461.826 408.636C439.69 451.59 406.354 487.825 365.31 513.387C324.332 538.949 277.095 552.982 228.738 553.97C77.869 556.935 -45 433.012 -45 282.209V168.497C-44.5388 146.822 -35.5789 126.202 -20.0968 111.049C-4.54876 95.8961 16.2698 87.3974 37.9448 87.3974C59.6857 87.3974 80.5043 95.8961 95.9864 111.049C111.534 126.202 120.428 146.822 120.89 168.497V286.294C120.89 296.703 122.471 307.046 125.567 316.994C125.577 317.024 125.586 317.054 125.595 317.083C132.919 340.301 148.389 360.163 169.115 373.06C189.868 385.972 214.507 390.979 238.686 387.29C262.864 383.601 284.869 371.347 300.812 352.834C316.755 334.321 325.518 310.736 325.518 286.294V282.934C325.518 276.609 328.021 270.548 332.501 266.068C336.981 261.588 343.042 259.085 349.367 259.085Z"/>
</mask>
<path d="M456.95 199.528L456.396 198.696L456.395 198.697L456.95 199.528ZM346.796 188.724L346.091 189.432L346.093 189.435L346.796 188.724ZM335.926 78.7017L335.096 78.1435L335.094 78.1461L335.926 78.7017ZM375.059 46.6174L374.677 45.6932L375.059 46.6174ZM425.459 41.6763L425.264 42.6572L425.459 41.6763ZM470.126 65.5254L469.419 66.2325V66.2325L470.126 65.5254ZM493.976 110.127L492.995 110.322L492.995 110.323L493.976 110.127ZM489.034 160.461L489.958 160.844L489.959 160.843L489.034 160.461ZM484.555 266.134L483.838 266.831L483.843 266.836L483.848 266.841L484.555 266.134ZM491.539 285.964H490.539V285.966L491.539 285.964ZM461.826 408.636L460.938 408.177L460.937 408.177L461.826 408.636ZM365.31 513.387L364.781 512.538L364.781 512.539L365.31 513.387ZM228.738 553.97L228.757 554.97H228.758L228.738 553.97ZM-45 168.497L-45.9998 168.476L-46 168.487V168.497H-45ZM-20.0968 111.049L-20.7947 110.333L-20.7963 110.334L-20.0968 111.049ZM95.9864 111.049L95.2869 111.763L95.2885 111.765L95.9864 111.049ZM120.89 168.497H121.89V168.487L121.889 168.476L120.89 168.497ZM125.567 316.994L124.612 317.292L124.613 317.294L125.567 316.994ZM125.595 317.083L126.549 316.782L125.595 317.083ZM169.115 373.06L169.643 372.21L169.115 373.06ZM238.686 387.29L238.837 388.279L238.686 387.29ZM332.501 266.068L331.794 265.361H331.794L332.501 266.068ZM408.527 215.22C425.986 215.22 443.045 210.022 457.506 200.36L456.395 198.697C442.262 208.14 425.59 213.22 408.527 213.22V215.22ZM346.093 189.435C362.748 205.89 385.202 215.22 408.527 215.22V213.22C385.735 213.22 363.785 204.103 347.499 188.012L346.093 189.435ZM320.234 127.125C320.234 150.514 329.497 172.905 346.091 189.432L347.502 188.015C331.286 171.865 322.234 149.984 322.234 127.125H320.234ZM335.094 78.1461C325.432 92.6065 320.234 109.665 320.234 127.125H322.234C322.234 110.062 327.314 93.3895 336.757 79.2573L335.094 78.1461ZM374.677 45.6932C358.549 52.3579 344.823 63.6865 335.096 78.1435L336.755 79.2599C346.266 65.1244 359.683 54.0533 375.441 47.5416L374.677 45.6932ZM425.653 40.6954C408.529 37.2972 390.804 39.0295 374.677 45.6932L375.441 47.5416C391.202 41.029 408.526 39.3356 425.264 42.6572L425.653 40.6954ZM470.833 64.8183C458.505 52.49 442.779 44.0939 425.653 40.6954L425.264 42.6572C442.002 45.9787 457.371 54.1846 469.419 66.2325L470.833 64.8183ZM494.956 109.933C491.558 92.8059 483.161 77.1457 470.833 64.8183L469.419 66.2325C481.468 78.2813 489.673 93.5854 492.995 110.322L494.956 109.933ZM489.959 160.843C496.622 144.717 498.355 126.991 494.956 109.932L492.995 110.323C496.316 126.994 494.623 144.318 488.11 160.079L489.959 160.843ZM457.504 200.361C472.033 190.697 483.295 176.902 489.958 160.844L488.111 160.077C481.598 175.774 470.591 189.254 456.396 198.696L457.504 200.361ZM467.69 258.085H349.367V260.085H467.69V258.085ZM485.273 265.437C480.664 260.691 474.276 258.085 467.69 258.085V260.085C473.753 260.085 479.619 262.485 483.838 266.831L485.273 265.437ZM492.539 283C492.539 276.41 489.93 270.095 485.263 265.427L483.848 266.841C488.14 271.133 490.539 276.94 490.539 283H492.539ZM492.539 285.964V283H490.539V285.964H492.539ZM462.715 409.094C482.355 371.005 492.605 328.815 492.539 285.963L490.539 285.966C490.605 328.496 480.431 370.371 460.938 408.177L462.715 409.094ZM365.839 514.236C407.037 488.578 440.497 452.208 462.715 409.094L460.937 408.177C438.884 450.972 405.672 487.072 364.781 512.538L365.839 514.236ZM228.758 554.97C277.295 553.978 324.708 539.893 365.839 514.236L364.781 512.539C323.956 538.005 276.894 551.986 228.717 552.97L228.758 554.97ZM-46 282.209C-46 433.555 77.3124 557.946 228.757 554.97L228.718 552.97C78.4256 555.924 -44 432.468 -44 282.209H-46ZM-46 168.497V282.209H-44V168.497H-46ZM-20.7963 110.334C-36.4648 125.669 -45.533 146.539 -45.9998 168.476L-44.0002 168.519C-43.5446 147.106 -34.6931 126.734 -19.3973 111.763L-20.7963 110.334ZM37.9448 86.3974C16.0078 86.3974 -5.06084 94.9988 -20.7947 110.333L-19.3988 111.765C-4.03668 96.7934 16.5318 88.3974 37.9448 88.3974V86.3974ZM96.6859 110.334C81.0166 94.9983 59.9469 86.3974 37.9448 86.3974V88.3974C59.4245 88.3974 79.9919 96.7939 95.2869 111.763L96.6859 110.334ZM121.889 168.476C121.423 146.541 112.421 125.67 96.6843 110.333L95.2885 111.765C110.647 126.733 119.434 147.104 119.89 168.519L121.889 168.476ZM121.89 286.294V168.497H119.89V286.294H121.89ZM126.522 316.697C123.455 306.845 121.89 296.602 121.89 286.294H119.89C119.89 296.804 121.486 307.248 124.612 317.292L126.522 316.697ZM126.549 316.782C126.54 316.753 126.53 316.724 126.521 316.694L124.613 317.294C124.623 317.324 124.632 317.354 124.642 317.384L126.549 316.782ZM169.643 372.21C149.118 359.439 133.801 339.771 126.549 316.782L124.642 317.384C132.038 340.831 147.659 360.887 168.587 373.909L169.643 372.21ZM238.535 386.301C214.591 389.955 190.192 384.996 169.643 372.21L168.587 373.909C189.543 386.948 214.424 392.004 238.837 388.279L238.535 386.301ZM300.054 352.181C284.266 370.515 262.476 382.648 238.535 386.301L238.837 388.279C263.253 384.553 285.472 372.179 301.57 353.486L300.054 352.181ZM324.518 286.294C324.518 310.496 315.841 333.85 300.054 352.181L301.57 353.486C317.669 334.792 326.518 310.975 326.518 286.294H324.518ZM324.518 282.934V286.294H326.518V282.934H324.518ZM331.794 265.361C327.126 270.029 324.518 276.344 324.518 282.934H326.518C326.518 276.874 328.916 271.067 333.208 266.775L331.794 265.361ZM349.367 258.085C342.777 258.085 336.462 260.693 331.794 265.361L333.208 266.775C337.5 262.483 343.307 260.085 349.367 260.085V258.085Z" fill="url(#paint1_linear)" mask="url(#path-4-inside-1)"/>
</g>
<defs>
<linearGradient id="paint0_linear" x1="5954.5" y1="2411" x2="-27.5003" y2="193.5" gradientUnits="userSpaceOnUse">
<stop stop-color="white"/>
<stop offset="1" stop-color="white" stop-opacity="0"/>
</linearGradient>
<linearGradient id="paint1_linear" x1="5954.5" y1="2410" x2="-27.5003" y2="192.5" gradientUnits="userSpaceOnUse">
<stop stop-color="white"/>
<stop offset="1" stop-color="white" stop-opacity="0"/>
</linearGradient>
</defs>
</svg>
