<svg width="20" height="20" viewBox="0 0 20 20" fill="none" xmlns="http://www.w3.org/2000/svg">
<path d="M15.3033 4.6967C18.2322 7.62563 18.2322 12.3744 15.3033 15.3033C12.3743 18.2322 7.62562 18.2322 4.6967 15.3033C1.76777 12.3744 1.76777 7.62562 4.6967 4.6967C7.62563 1.76777 12.3744 1.76777 15.3033 4.6967" stroke="#371E56" stroke-width="1.5" stroke-linecap="round" stroke-linejoin="round"/>
<path d="M14.4231 16.0477C14.1031 14.5143 12.2548 13.3335 10.0006 13.3335C7.74646 13.3335 5.89813 14.5143 5.57812 16.0477" stroke="#371E56" stroke-width="1.5" stroke-linecap="round" stroke-linejoin="round"/>
<path d="M11.7678 6.56573C12.7441 7.54204 12.7441 9.12495 11.7678 10.1013C10.7915 11.0776 9.20854 11.0776 8.23223 10.1013C7.25592 9.12495 7.25592 7.54204 8.23223 6.56573C9.20854 5.58942 10.7915 5.58942 11.7678 6.56573" stroke="#371E56" stroke-width="1.5" stroke-linecap="round" stroke-linejoin="round"/>
</svg>
