<svg width="116" height="130" viewBox="0 0 116 130" fill="none" xmlns="http://www.w3.org/2000/svg">
<path d="M60 120C86.5089 120 108 98.5512 108 72C108 45.4488 86.5089 24 60 24C33.4911 24 12 45.4488 12 72C12 98.5512 33.4911 120 60 120Z" fill="url(#paint0_linear)"/>
<path d="M46.842 59.499C42.5893 62.5974 35 67.0932 35 71.0421C35 73.355 35 76.6473 35 78.9784C35 79.9201 36.349 80.4895 37.1275 79.9597C39.1792 78.5635 42.7263 76.955 47.8189 77.4212C56.4459 78.211 47.3001 63.7517 47.3001 63.7517L46.842 59.499Z" fill="#2BC4C3"/>
<path d="M73.7652 59.499C78.0179 62.6582 85.6072 67.0932 85.6072 71.0421C85.6072 73.355 85.6072 76.6473 85.6072 78.9784C85.6072 79.9201 84.2582 80.4895 83.4797 79.9597C81.428 78.5635 77.8809 76.955 72.7882 77.4212C64.1613 78.211 72.3071 63.7517 72.3071 63.7517L73.7652 59.499Z" fill="#2BC4C3"/>
<g filter="url(#filter0_d)">
<path d="M60.2731 16C52.2536 21.7108 42.6546 35.7448 44.4165 53.6062C46.1176 71.4677 47.6364 80.2769 50.9171 82.4032C54.2585 84.5296 57.5392 85.0156 60.2731 85.0156C63.0069 85.0156 66.2876 84.5296 69.629 82.4032C72.9705 80.2769 74.4285 71.4677 76.1296 53.6062C77.8307 35.7448 68.2317 21.7108 60.2731 16Z" fill="white"/>
</g>
<path d="M67.0817 88H53.8521C52.7938 88 52 87.1558 52 86.1818V83H69V86.1169C68.9339 87.1558 68.0739 88 67.0817 88Z" fill="#CEE2EC"/>
<path d="M61.1239 80.0947V59.3779C61.1239 58.9081 60.7431 58.5273 60.2734 58.5273C59.8037 58.5273 59.4229 58.9081 59.4229 59.3779V80.0947C59.4229 80.5645 59.8037 80.9453 60.2734 80.9453C60.7431 80.9453 61.1239 80.5645 61.1239 80.0947Z" fill="url(#paint1_linear)"/>
<path d="M60.2588 46.2871C63.5725 46.2871 66.2588 43.6008 66.2588 40.2871C66.2588 36.9734 63.5725 34.2871 60.2588 34.2871C56.9451 34.2871 54.2588 36.9734 54.2588 40.2871C54.2588 43.6008 56.9451 46.2871 60.2588 46.2871Z" stroke="#CEE2EC" stroke-width="4" stroke-miterlimit="10"/>
<path d="M68.5964 99.1102C68.5964 104.031 64.6474 128.697 59.7264 128.697C54.8054 128.697 50.8564 104.031 50.8564 99.1102C50.8564 94.1892 54.8054 90.2402 59.7264 90.2402C64.6474 90.2402 68.5964 94.2499 68.5964 99.1102Z" fill="white"/>
<path d="M68.5964 99.1102C68.5964 104.031 64.6474 128.697 59.7264 128.697C54.8054 128.697 50.8564 104.031 50.8564 99.1102C50.8564 94.1892 54.8054 90.2402 59.7264 90.2402C64.6474 90.2402 68.5964 94.2499 68.5964 99.1102Z" fill="#FFB4A2" fill-opacity="0.5"/>
<path d="M59.7267 117.336C57.9648 113.569 55.96 103.12 55.96 99.7784C55.96 97.7128 57.6611 96.0117 59.7267 96.0117C61.7923 96.0117 63.4934 97.7128 63.4934 99.7784C63.4934 103.12 61.4885 113.509 59.7267 117.336Z" fill="#FFB4A2"/>
<path opacity="0.5" d="M106 117C107.105 117 108 116.105 108 115C108 113.895 107.105 113 106 113C104.895 113 104 113.895 104 115C104 116.105 104.895 117 106 117Z" fill="#D6B5E2"/>
<path opacity="0.5" d="M114 50C115.105 50 116 49.1046 116 48C116 46.8954 115.105 46 114 46C112.895 46 112 46.8954 112 48C112 49.1046 112.895 50 114 50Z" fill="#D6B5E2"/>
<path opacity="0.5" d="M18 36C19.1046 36 20 35.1046 20 34C20 32.8954 19.1046 32 18 32C16.8954 32 16 32.8954 16 34C16 35.1046 16.8954 36 18 36Z" fill="#D6B5E2"/>
<path opacity="0.5" d="M38 127C38.5523 127 39 126.552 39 126C39 125.448 38.5523 125 38 125C37.4477 125 37 125.448 37 126C37 126.552 37.4477 127 38 127Z" fill="#D6B5E2"/>
<g filter="url(#filter1_d)">
<path d="M31.7311 106.447C31.4859 107.486 31.1181 108.586 30.689 109.503C29.5243 111.763 27.6853 113.536 25.4173 114.697C23.0879 115.858 20.3294 116.346 17.5709 115.735C11.0732 114.391 6.9048 108.036 8.25339 101.559C9.60198 95.0814 15.9158 90.865 22.4136 92.2705C24.743 92.7593 26.7658 93.9204 28.4822 95.5091C31.3633 98.3811 32.5893 102.536 31.7311 106.447Z" fill="#2BC4C3"/>
</g>
<path d="M20.0003 101.997V101.334" stroke="white" stroke-width="1.5" stroke-linecap="round" stroke-linejoin="round"/>
<path d="M20.0003 106.004V106.667" stroke="white" stroke-width="1.5" stroke-linecap="round" stroke-linejoin="round"/>
<path d="M18.844 105.519C19.0166 105.802 19.3106 105.997 19.6666 105.997H20H20.3966C20.9133 105.997 21.332 105.579 21.332 105.062C21.332 104.633 21.0406 104.259 20.624 104.155L19.376 103.842C18.96 103.737 18.668 103.363 18.668 102.935C18.668 102.419 19.0866 102 19.6033 102H20H20.3333C20.688 102 20.982 102.195 21.1553 102.475" stroke="white" stroke-width="1.5" stroke-linecap="round" stroke-linejoin="round"/>
<path fill-rule="evenodd" clip-rule="evenodd" d="M14.33 104.976L15.1267 106.018L15.2987 107.316C15.394 108.036 15.96 108.603 16.68 108.699L17.9813 108.873L19.0233 109.669C19.6 110.11 20.3993 110.11 20.976 109.669L22.0187 108.872H22.0173L23.316 108.7C24.036 108.605 24.6027 108.039 24.6987 107.319L24.872 106.018C24.872 106.018 25.2747 105.491 25.6687 104.976C26.1093 104.399 26.1087 103.6 25.6687 103.023L24.8733 101.98L24.7013 100.682C24.606 99.9625 24.04 99.3958 23.32 99.2998L22.018 99.1265L20.976 98.3305C20.3993 97.8898 19.6 97.8898 19.0233 98.3305L17.9807 99.1265H17.982L16.6833 99.2992C15.9633 99.3945 15.3967 99.9605 15.3007 100.68L15.1267 101.982C15.1267 101.981 14.724 102.508 14.33 103.024C13.89 103.6 13.89 104.4 14.33 104.976V104.976Z" stroke="white" stroke-width="1.5" stroke-linecap="round" stroke-linejoin="round"/>
<defs>
<filter id="filter0_d" x="28.2051" y="0" width="64.1225" height="101.016" filterUnits="userSpaceOnUse" color-interpolation-filters="sRGB">
<feFlood flood-opacity="0" result="BackgroundImageFix"/>
<feColorMatrix in="SourceAlpha" type="matrix" values="0 0 0 0 0 0 0 0 0 0 0 0 0 0 0 0 0 0 127 0"/>
<feOffset/>
<feGaussianBlur stdDeviation="8"/>
<feColorMatrix type="matrix" values="0 0 0 0 0.168627 0 0 0 0 0.768627 0 0 0 0 0.764706 0 0 0 0.08 0"/>
<feBlend mode="normal" in2="BackgroundImageFix" result="effect1_dropShadow"/>
<feBlend mode="normal" in="SourceGraphic" in2="effect1_dropShadow" result="shape"/>
</filter>
<filter id="filter1_d" x="0" y="90" width="40" height="40" filterUnits="userSpaceOnUse" color-interpolation-filters="sRGB">
<feFlood flood-opacity="0" result="BackgroundImageFix"/>
<feColorMatrix in="SourceAlpha" type="matrix" values="0 0 0 0 0 0 0 0 0 0 0 0 0 0 0 0 0 0 127 0"/>
<feOffset dy="6"/>
<feGaussianBlur stdDeviation="4"/>
<feColorMatrix type="matrix" values="0 0 0 0 0.168627 0 0 0 0 0.768627 0 0 0 0 0.764706 0 0 0 0.2 0"/>
<feBlend mode="normal" in2="BackgroundImageFix" result="effect1_dropShadow"/>
<feBlend mode="normal" in="SourceGraphic" in2="effect1_dropShadow" result="shape"/>
</filter>
<linearGradient id="paint0_linear" x1="217.5" y1="-45" x2="19.5" y2="106" gradientUnits="userSpaceOnUse">
<stop stop-color="#8F7DD1"/>
<stop offset="1" stop-color="#8F7DD1" stop-opacity="0"/>
</linearGradient>
<linearGradient id="paint1_linear" x1="60.2734" y1="58.5273" x2="60.2734" y2="80.9453" gradientUnits="userSpaceOnUse">
<stop stop-color="#CEE2EC"/>
<stop offset="1" stop-color="#CEE2EC" stop-opacity="0"/>
</linearGradient>
</defs>
</svg>
