<svg width="24" height="25" viewBox="0 0 24 25" fill="none" xmlns="http://www.w3.org/2000/svg">
<path fill-rule="evenodd" clip-rule="evenodd" d="M20 11.1915C20 15.7325 16.587 19.9785 12 21.0095C7.413 19.9785 4 15.7325 4 11.1915V7.25252C4 6.44052 4.491 5.70852 5.243 5.40152L10.243 3.35552C11.369 2.89452 12.631 2.89452 13.757 3.35552L18.757 5.40152C19.509 5.70952 20 6.44052 20 7.25252V11.1915V11.1915Z" stroke="#FFECBF" stroke-width="1.5" stroke-linecap="round" stroke-linejoin="round"/>
<path opacity="0.5" d="M9.51953 13.7322L13.7195 9.53223" stroke="#FFECBF" stroke-width="1.5" stroke-linecap="round" stroke-linejoin="round"/>
<path opacity="0.5" d="M13.9187 13.5784C14.0167 13.6764 14.0167 13.8344 13.9187 13.9314C13.8207 14.0294 13.6627 14.0294 13.5657 13.9314C13.4677 13.8334 13.4677 13.6754 13.5657 13.5784C13.6617 13.4804 13.8207 13.4804 13.9187 13.5784" stroke="#FFECBF" stroke-width="1.5" stroke-linecap="round" stroke-linejoin="round"/>
<path opacity="0.5" d="M9.677 9.33239C9.775 9.43039 9.775 9.58939 9.677 9.68639C9.579 9.78439 9.42 9.78439 9.323 9.68639C9.225 9.58839 9.225 9.42939 9.323 9.33239C9.421 9.23539 9.579 9.23539 9.677 9.33239" stroke="#FFECBF" stroke-width="1.5" stroke-linecap="round" stroke-linejoin="round"/>
</svg>
