<svg width="24" height="24" viewBox="0 0 24 24" fill="none" xmlns="http://www.w3.org/2000/svg">
<path d="M8.97461 19.9752L18.6856 10.2642C19.4666 9.48324 19.4666 8.21724 18.6856 7.43624L16.5646 5.31524C15.7836 4.53424 14.5176 4.53424 13.7366 5.31524L9.99961 9.05024" stroke="#2BC4C3" stroke-width="1.5" stroke-linecap="round" stroke-linejoin="round"/>
<path d="M14.95 14H19C20.105 14 21 14.895 21 16V19C21 20.105 20.105 21 19 21H6.5" stroke="#2BC4C3" stroke-width="1.5" stroke-linecap="round" stroke-linejoin="round"/>
<path d="M6.374 17.25C6.167 17.251 6 17.419 6 17.626C6 17.833 6.168 18 6.375 18C6.582 18 6.75 17.832 6.75 17.625C6.75 17.418 6.582 17.25 6.374 17.25" stroke="#2BC4C3" stroke-width="1.5" stroke-linecap="round" stroke-linejoin="round"/>
<path fill-rule="evenodd" clip-rule="evenodd" d="M6.5 21V21C4.567 21 3 19.433 3 17.5V5C3 3.895 3.895 3 5 3H8C9.105 3 10 3.895 10 5V17.5C10 19.433 8.433 21 6.5 21Z" stroke="#65419A" stroke-width="1.5" stroke-linecap="round" stroke-linejoin="round"/>
</svg>
