<svg width="26" height="25" viewBox="0 0 26 25" fill="none" xmlns="http://www.w3.org/2000/svg">
<path d="M11.9998 20.0085C7.02721 20.0085 2.99609 15.9774 2.99609 11.0047C2.99609 6.03209 7.02721 2.00098 11.9998 2.00098C16.9725 2.00098 21.0036 6.03209 21.0036 11.0047" stroke="#FFECBF" stroke-width="1.5" stroke-linecap="round" stroke-linejoin="round"/>
<path d="M16.0028 11.0047C16.0103 8.2098 15.2612 5.46496 13.8349 3.06141C13.4575 2.40538 12.7584 2.00098 12.0016 2.00098C11.2448 2.00098 10.5457 2.40538 10.1683 3.06141C7.27723 7.96271 7.27723 14.0477 10.1683 18.949C10.547 19.6033 11.2451 20.0068 12.0011 20.0085" stroke="#FFECBF" stroke-width="1.5" stroke-linecap="round" stroke-linejoin="round"/>
<path opacity="0.5" d="M15.593 16.9552L17.9459 14.2541C18.0858 14.0939 18.288 14.002 18.5007 14.002C18.7133 14.002 18.9156 14.0939 19.0554 14.2541L21.4154 16.9552M20.564 21.0089H16.4443C16.1138 21.0098 15.8231 20.7906 15.733 20.4727L15.0327 17.9266C14.9738 17.7068 15.0207 17.4721 15.1596 17.2918C15.2985 17.1116 15.5135 17.0063 15.741 17.0072H21.2683C21.4964 17.0054 21.7123 17.1102 21.8518 17.2906C21.9914 17.471 22.0387 17.7063 21.9796 17.9266L21.2793 20.4727C21.1888 20.7921 20.896 21.0116 20.564 21.0089Z" stroke="#FFECBF" stroke-width="1.5" stroke-linecap="round" stroke-linejoin="round"/>
<path d="M3.51172 8.00314H20.0056" stroke="#FFECBF" stroke-width="1.5" stroke-linecap="round" stroke-linejoin="round"/>
<path d="M3.51172 14.0061H12.0013" stroke="#FFECBF" stroke-width="1.5" stroke-linecap="round" stroke-linejoin="round"/>
</svg>
