<svg width="24" height="24" viewBox="0 0 24 24" fill="none" xmlns="http://www.w3.org/2000/svg">
<path d="M20.7933 9.52319C21.5833 10.3132 21.5833 11.5941 20.7933 12.3841C20.0033 13.1742 18.7224 13.1742 17.9324 12.3841C17.1423 11.5941 17.1423 10.3132 17.9324 9.52319C18.7224 8.73316 20.0033 8.73316 20.7933 9.52319" stroke="#2BC4C3" stroke-width="1.5" stroke-linecap="round" stroke-linejoin="round"/>
<path d="M14.2024 5.91236C15.4189 7.12884 15.4189 9.10115 14.2024 10.3176C12.9859 11.5341 11.0136 11.5341 9.79713 10.3176C8.58065 9.10116 8.58065 7.12885 9.79713 5.91236C11.0136 4.69588 12.9859 4.69588 14.2024 5.91236" stroke="#2BC4C3" stroke-width="1.5" stroke-linecap="round" stroke-linejoin="round"/>
<path d="M6.06871 9.52319C6.85874 10.3132 6.85874 11.5941 6.06871 12.3841C5.27868 13.1742 3.99779 13.1742 3.20776 12.3841C2.41773 11.5941 2.41773 10.3132 3.20776 9.52319C3.99779 8.73316 5.27868 8.73316 6.06871 9.52319" stroke="#2BC4C3" stroke-width="1.5" stroke-linecap="round" stroke-linejoin="round"/>
<path d="M23.0002 19.0003V17.9043C23.0002 16.5233 21.8812 15.4043 20.5002 15.4043H19.6992" stroke="#65419A" stroke-width="1.5" stroke-linecap="round" stroke-linejoin="round"/>
<path d="M1 19.0003V17.9043C1 16.5233 2.119 15.4043 3.5 15.4043H4.301" stroke="#65419A" stroke-width="1.5" stroke-linecap="round" stroke-linejoin="round"/>
<path d="M17.3392 19.0004V17.3994C17.3392 15.4664 15.7722 13.8994 13.8392 13.8994H10.1602C8.22716 13.8994 6.66016 15.4664 6.66016 17.3994V19.0004" stroke="#2BC4C3" stroke-width="1.5" stroke-linecap="round" stroke-linejoin="round"/>
</svg>
