<svg width="24" height="24" viewBox="0 0 24 24" fill="none" xmlns="http://www.w3.org/2000/svg">
<path d="M6.21875 5.11C7.78075 3.794 9.79575 3 11.9988 3C16.9698 3 20.9987 7.029 20.9987 12C20.9987 13.447 20.6487 14.81 20.0417 16.021L17.3608 14.681" stroke="#FFECBF" stroke-width="1.5" stroke-linecap="round" stroke-linejoin="round"/>
<path d="M17.78 18.8895C16.218 20.2055 14.203 20.9995 12 20.9995C7.029 20.9995 3 16.9695 3 11.9995C3 10.5525 3.35 9.18952 3.957 7.97852L6.638 9.31852" stroke="#FFECBF" stroke-width="1.5" stroke-linecap="round" stroke-linejoin="round"/>
<path opacity="0.5" d="M12 7V8.25" stroke="#FFECBF" stroke-width="1.5" stroke-linecap="round" stroke-linejoin="round"/>
<path opacity="0.5" d="M12 17V15.75" stroke="#FFECBF" stroke-width="1.5" stroke-linecap="round" stroke-linejoin="round"/>
<path d="M14.487 10C14.422 9.024 13.617 8.25 12.625 8.25H11.255C10.285 8.25 9.5 9.036 9.5 10.005C9.5 10.81 10.048 11.512 10.828 11.708L13.171 12.296C13.952 12.492 14.499 13.194 14.499 13.999C14.499 14.969 13.713 15.754 12.744 15.754H11.374C10.38 15.754 9.575 14.978 9.511 14" stroke="#FFECBF" stroke-width="1.5" stroke-linecap="round" stroke-linejoin="round"/>
</svg>
