<svg width="20" height="20" viewBox="0 0 20 20" fill="none" xmlns="http://www.w3.org/2000/svg">
<path opacity="0.5" d="M15.3033 4.6967C18.2322 7.62563 18.2322 12.3744 15.3033 15.3033C12.3743 18.2322 7.62562 18.2322 4.6967 15.3033C1.76777 12.3744 1.76777 7.62562 4.6967 4.6967C7.62563 1.76777 12.3744 1.76777 15.3033 4.6967" stroke="#1F437D" stroke-width="1.5" stroke-linecap="round" stroke-linejoin="round"/>
<path d="M5.5 14.5353C6.3172 13.8033 8.57784 13.3333 10 13.3333C11.4222 13.3333 13.6828 13.8033 14.5 14.5353" stroke="#1F437D" stroke-width="1.5" stroke-linecap="round" stroke-linejoin="round"/>
<path d="M11.7678 6.56548C12.7441 7.54179 12.7441 9.12471 11.7678 10.101C10.7915 11.0773 9.20854 11.0773 8.23223 10.101C7.25592 9.12471 7.25592 7.54179 8.23223 6.56548C9.20854 5.58917 10.7915 5.58917 11.7678 6.56548" stroke="#1F437D" stroke-width="1.5" stroke-linecap="round" stroke-linejoin="round"/>
</svg>
