<svg width="90" height="97" viewBox="0 0 90 97" fill="none" xmlns="http://www.w3.org/2000/svg">
<g filter="url(#filter0_d)">
<rect x="9" width="72" height="72" rx="36" fill="white"/>
</g>
<path d="M32 49.4666C32.0057 50.8708 33.1299 52.0039 34.511 52L55.5118 51.8935C56.8929 51.8857 58.0057 50.7411 58 49.3349L54.6425 26.9571L51.5 26.9706C51.5038 26.8815 51.5038 26.7905 51.5038 26.7014C51.4848 22.9886 48.5039 19.9826 44.8554 20.0001C41.2088 20.0194 38.2565 23.0544 38.2736 26.7692C38.2736 26.8583 38.2774 26.9474 38.2812 27.0384L34.8058 27.0539L32 49.4666ZM39.7536 27.0307C39.7498 26.9416 39.7441 26.8506 39.7441 26.7615C39.7307 23.8756 42.0268 21.5108 44.8649 21.4972C47.7012 21.4856 50.02 23.8233 50.0333 26.7092C50.0333 26.7983 50.0315 26.8893 50.0257 26.9803L39.7536 27.0307Z" fill="#65419A"/>
<defs>
<filter id="filter0_d" x="0" y="0" width="90" height="97" filterUnits="userSpaceOnUse" color-interpolation-filters="sRGB">
<feFlood flood-opacity="0" result="BackgroundImageFix"/>
<feColorMatrix in="SourceAlpha" type="matrix" values="0 0 0 0 0 0 0 0 0 0 0 0 0 0 0 0 0 0 127 0"/>
<feOffset dy="16"/>
<feGaussianBlur stdDeviation="4.5"/>
<feColorMatrix type="matrix" values="0 0 0 0 0.0669097 0 0 0 0 0.172136 0 0 0 0 0.341667 0 0 0 0.04 0"/>
<feBlend mode="normal" in2="BackgroundImageFix" result="effect1_dropShadow"/>
<feBlend mode="normal" in="SourceGraphic" in2="effect1_dropShadow" result="shape"/>
</filter>
</defs>
</svg>
