<svg width="18" height="18" viewBox="0 0 18 18" fill="none" xmlns="http://www.w3.org/2000/svg">
<path d="M14.3033 3.6967C17.2322 6.62563 17.2322 11.3744 14.3033 14.3033C11.3743 17.2322 6.62562 17.2322 3.6967 14.3033C0.767767 11.3744 0.767767 6.62562 3.6967 3.6967C6.62563 0.767767 11.3744 0.767767 14.3033 3.6967" stroke="#65429A" stroke-width="1.5" stroke-linecap="round" stroke-linejoin="round"/>
<path d="M13.4231 15.0477C13.1031 13.5143 11.2548 12.3335 9.00063 12.3335C6.74646 12.3335 4.89813 13.5143 4.57812 15.0477" stroke="#65429A" stroke-width="1.5" stroke-linecap="round" stroke-linejoin="round"/>
<path d="M10.7678 5.56573C11.7441 6.54204 11.7441 8.12495 10.7678 9.10126C9.79146 10.0776 8.20854 10.0776 7.23223 9.10126C6.25592 8.12495 6.25592 6.54204 7.23223 5.56573C8.20854 4.58942 9.79146 4.58942 10.7678 5.56573" stroke="#65429A" stroke-width="1.5" stroke-linecap="round" stroke-linejoin="round"/>
</svg>
