<svg width="24" height="24" viewBox="0 0 24 24" fill="none" xmlns="http://www.w3.org/2000/svg">
<path fill-rule="evenodd" clip-rule="evenodd" d="M19.5 17.5H16C15.7 17.5 15.4 17.7 15.2 17.9L14.8 18.5C14.6 18.8 14.3 19 14 19H9C8.7 19 8.4 18.8 8.2 18.6L7.8 18C7.6 17.7 7.3 17.6 7 17.6H3.5C2.9 17.6 2.5 18 2.5 18.6V19.6C2.5 20.7 3.4 21.6 4.5 21.6H18.5C19.6 21.6 20.5 20.7 20.5 19.6V18.6C20.5 17.9 20.1 17.5 19.5 17.5V17.5Z" stroke="#2BC4C3" stroke-width="1.5" stroke-linecap="round" stroke-linejoin="round"/>
<path d="M11.1 5.5H5.3C4.3 5.5 3.5 6.2 3.5 7.1V17.5" stroke="#2BC4C3" stroke-width="1.5" stroke-linecap="round" stroke-linejoin="round"/>
<path d="M19.5 17.5002V12.2002" stroke="#2BC4C3" stroke-width="1.5" stroke-linecap="round" stroke-linejoin="round"/>
<path d="M13.5 7.99961C13.4 7.99961 13.4 8.09961 13.4 8.09961C13.4 8.19961 13.5 8.19961 13.5 8.19961L13.6 8.09961C13.6 8.09961 13.6 7.99961 13.5 7.99961" stroke="#65419A" stroke-width="1.5" stroke-linecap="round" stroke-linejoin="round"/>
<path d="M16 7.99961C15.9 7.99961 15.9 8.09961 15.9 8.09961C15.9 8.19961 16 8.19961 16 8.19961C16.1 8.19961 16.1 8.09961 16.1 8.09961C16.1 8.09961 16.1 7.99961 16 7.99961" stroke="#65419A" stroke-width="1.5" stroke-linecap="round" stroke-linejoin="round"/>
<path d="M18.5 7.99961C18.4 7.99961 18.4 8.09961 18.4 8.09961L18.5 8.19961L18.6 8.09961C18.6 8.09961 18.6 7.99961 18.5 7.99961" stroke="#65419A" stroke-width="1.5" stroke-linecap="round" stroke-linejoin="round"/>
<path fill-rule="evenodd" clip-rule="evenodd" d="M15.9996 13.5C15.0996 13.5 14.1996 13.3 13.4996 12.9L10.5996 13.5L11.1996 10.6C10.7996 9.8 10.5996 9 10.5996 8C10.5996 5 13.0996 2.5 16.0996 2.5C19.0996 2.5 21.4996 5 21.4996 8C21.4996 11 18.9996 13.5 15.9996 13.5Z" stroke="#65419A" stroke-width="1.5" stroke-linecap="round" stroke-linejoin="round"/>
</svg>
