<svg width="114" height="114" viewBox="0 0 114 114" fill="none" xmlns="http://www.w3.org/2000/svg">
<g filter="url(#filter0_d)">
<rect x="32" y="8" width="66" height="66" rx="33" fill="white"/>
</g>
<rect x="53.2148" y="33.9287" width="22.3929" height="20.0357" rx="2.39113" fill="#A1DFDF"/>
<path fill-rule="evenodd" clip-rule="evenodd" d="M59.2484 35.2121H59.4164C59.8318 37.1588 61.903 38.6404 64.4133 38.6404C66.9236 38.6404 68.9948 37.1588 69.4102 35.2121H69.5782C69.9553 37.1532 72.0443 38.6431 74.584 38.6431C77.9487 38.6209 80.1437 35.4711 78.6852 32.7586L76.7436 29.1438C75.9864 27.7402 74.4632 26.8574 72.8015 26.8574H56.0193C54.3546 26.8574 52.8313 27.7402 52.0771 29.1438L50.1384 32.7558C48.68 35.4711 50.875 38.6181 54.2397 38.6404C56.7765 38.6431 58.8654 37.1532 59.2484 35.2121Z" fill="#2BC4C3"/>
<path fill-rule="evenodd" clip-rule="evenodd" d="M49.6797 52.786C49.6797 52.1351 50.3317 51.6074 51.136 51.6074H77.6876C78.4919 51.6074 79.144 52.1351 79.144 52.786C79.144 53.4369 78.4919 53.9646 77.6876 53.9646H51.136C50.3317 53.9646 49.6797 53.4369 49.6797 52.786Z" fill="#004852"/>
<defs>
<filter id="filter0_d" x="0" y="0" width="114" height="114" filterUnits="userSpaceOnUse" color-interpolation-filters="sRGB">
<feFlood flood-opacity="0" result="BackgroundImageFix"/>
<feColorMatrix in="SourceAlpha" type="matrix" values="0 0 0 0 0 0 0 0 0 0 0 0 0 0 0 0 0 0 127 0"/>
<feOffset dx="-8" dy="16"/>
<feGaussianBlur stdDeviation="12"/>
<feColorMatrix type="matrix" values="0 0 0 0 0.278431 0 0 0 0 0.756863 0 0 0 0 0.768627 0 0 0 0.12 0"/>
<feBlend mode="normal" in2="BackgroundImageFix" result="effect1_dropShadow"/>
<feBlend mode="normal" in="SourceGraphic" in2="effect1_dropShadow" result="shape"/>
</filter>
</defs>
</svg>
