<svg width="24" height="24" viewBox="0 0 24 24" fill="none" xmlns="http://www.w3.org/2000/svg">
<path d="M20.7933 9.52319C21.5833 10.3132 21.5833 11.5941 20.7933 12.3841C20.0033 13.1742 18.7224 13.1742 17.9324 12.3841C17.1423 11.5941 17.1423 10.3132 17.9324 9.52319C18.7224 8.73316 20.0033 8.73316 20.7933 9.52319" stroke="#FFECBF" stroke-width="1.5" stroke-linecap="round" stroke-linejoin="round"/>
<path d="M14.2044 5.91236C15.4208 7.12884 15.4208 9.10115 14.2044 10.3176C12.9879 11.5341 11.0156 11.5341 9.79908 10.3176C8.5826 9.10116 8.5826 7.12885 9.79908 5.91236C11.0156 4.69588 12.9879 4.69588 14.2044 5.91236" stroke="#FFECBF" stroke-width="1.5" stroke-linecap="round" stroke-linejoin="round"/>
<path d="M6.06675 9.52319C6.85679 10.3132 6.85679 11.5941 6.06675 12.3841C5.27672 13.1742 3.99583 13.1742 3.2058 12.3841C2.41577 11.5941 2.41577 10.3132 3.2058 9.52319C3.99584 8.73316 5.27672 8.73316 6.06675 9.52319" stroke="#FFECBF" stroke-width="1.5" stroke-linecap="round" stroke-linejoin="round"/>
<path opacity="0.5" d="M23.0002 19.0003V17.9043C23.0002 16.5233 21.8812 15.4043 20.5002 15.4043H19.6992" stroke="#FFECBF" stroke-width="1.5" stroke-linecap="round" stroke-linejoin="round"/>
<path opacity="0.5" d="M1 19.0003V17.9043C1 16.5233 2.119 15.4043 3.5 15.4043H4.301" stroke="#FFECBF" stroke-width="1.5" stroke-linecap="round" stroke-linejoin="round"/>
<path d="M17.3392 19.0004V17.3994C17.3392 15.4664 15.7722 13.8994 13.8392 13.8994H10.1602C8.22716 13.8994 6.66016 15.4664 6.66016 17.3994V19.0004" stroke="#FFECBF" stroke-width="1.5" stroke-linecap="round" stroke-linejoin="round"/>
</svg>
