<svg width="24" height="24" viewBox="0 0 24 24" fill="none" xmlns="http://www.w3.org/2000/svg">
<path d="M20.0032 13.0008V16.7524C20.0032 17.88 19.5552 18.9615 18.7579 19.7588C17.9605 20.5562 16.879 21.0042 15.7514 21.0042H7.24786C4.89968 21.0042 2.99609 19.1006 2.99609 16.7524V8.24884C2.99609 5.90065 4.89968 3.99707 7.24786 3.99707H10.9994" stroke="#2BC4C3" stroke-width="1.5" stroke-linecap="round" stroke-linejoin="round"/>
<path fill-rule="evenodd" clip-rule="evenodd" d="M17.2652 2.45378C17.4031 2.17301 17.6887 1.99512 18.0015 1.99512C18.3143 1.99512 18.5999 2.17301 18.7378 2.45378L19.3381 3.67028C19.4573 3.91296 19.6887 4.08107 19.9563 4.11947L21.2999 4.31956C21.6094 4.36422 21.8666 4.58097 21.9631 4.87843C22.0595 5.1759 21.9785 5.50234 21.7541 5.72014L20.7827 6.66853C20.5888 6.85672 20.5004 7.12859 20.5466 7.39484L20.7757 8.73239C20.8288 9.04031 20.7024 9.35167 20.4496 9.53539C20.1969 9.71911 19.8617 9.74329 19.5852 9.59775L18.3847 8.96649C18.1455 8.84038 17.8595 8.84038 17.6204 8.96649L16.4199 9.59775C16.1434 9.74329 15.8082 9.71911 15.5554 9.53539C15.3027 9.35167 15.1763 9.04031 15.2294 8.73239L15.4585 7.39484C15.5047 7.12859 15.4163 6.85672 15.2224 6.66853L14.251 5.72014C14.0266 5.50234 13.9455 5.1759 14.042 4.87843C14.1384 4.58097 14.3956 4.36422 14.7052 4.31956L16.0487 4.11947C16.3163 4.08107 16.5477 3.91296 16.667 3.67028L17.2652 2.45378Z" stroke="#65419A" stroke-width="1.5" stroke-linecap="round" stroke-linejoin="round"/>
<path fill-rule="evenodd" clip-rule="evenodd" d="M12.63 17.002H8.36624C8.05051 17.0018 7.77395 16.7904 7.69096 16.4858L7.02268 14.0348C6.96533 13.8243 7.00936 13.5991 7.14176 13.4257C7.27416 13.2523 7.4798 13.1505 7.69796 13.1504H13.3003C13.5185 13.1505 13.7241 13.2523 13.8565 13.4257C13.9889 13.5991 14.0329 13.8243 13.9756 14.0348L13.3073 16.4858C13.2241 16.7911 12.9465 17.0027 12.63 17.002V17.002Z" stroke="#2BC4C3" stroke-width="1.5" stroke-linecap="round" stroke-linejoin="round"/>
<path d="M7.62695 13.1671L9.60678 10.451C9.814 10.1675 10.144 10 10.4951 10C10.8463 10 11.1763 10.1675 11.3835 10.451L13.3713 13.1691" stroke="#2BC4C3" stroke-width="1.5" stroke-linecap="round" stroke-linejoin="round"/>
</svg>
