<svg width="24" height="24" viewBox="0 0 24 24" fill="none" xmlns="http://www.w3.org/2000/svg">
<path fill-rule="evenodd" clip-rule="evenodd" d="M18 17H20C20.552 17 21 17.448 21 18V20C21 20.552 20.552 21 20 21H18C17.448 21 17 20.552 17 20V18C17 17.448 17.448 17 18 17Z" stroke="#FFECBF" stroke-width="1.5" stroke-linecap="round" stroke-linejoin="round"/>
<path fill-rule="evenodd" clip-rule="evenodd" d="M4 3H6C6.552 3 7 3.448 7 4V6C7 6.552 6.552 7 6 7H4C3.448 7 3 6.552 3 6V4C3 3.448 3.448 3 4 3Z" stroke="#FFECBF" stroke-width="1.5" stroke-linecap="round" stroke-linejoin="round"/>
<path fill-rule="evenodd" clip-rule="evenodd" d="M17 6V4C17 3.448 17.448 3 18 3H20C20.552 3 21 3.448 21 4V6C21 6.552 20.552 7 20 7H18C17.448 7 17 6.552 17 6Z" stroke="#FFECBF" stroke-width="1.5" stroke-linecap="round" stroke-linejoin="round"/>
<path fill-rule="evenodd" clip-rule="evenodd" d="M10 5V5C10 3.895 10.895 3 12 3V3C13.105 3 14 3.895 14 5V5C14 6.105 13.105 7 12 7V7C10.895 7 10 6.105 10 5Z" stroke="#FFECBF" stroke-width="1.5" stroke-linecap="round" stroke-linejoin="round"/>
<path fill-rule="evenodd" clip-rule="evenodd" d="M3 20V18C3 17.448 3.448 17 4 17H6C6.552 17 7 17.448 7 18V20C7 20.552 6.552 21 6 21H4C3.448 21 3 20.552 3 20Z" stroke="#FFECBF" stroke-width="1.5" stroke-linecap="round" stroke-linejoin="round"/>
<path fill-rule="evenodd" clip-rule="evenodd" d="M10 19V19C10 17.895 10.895 17 12 17V17C13.105 17 14 17.895 14 19V19C14 20.105 13.105 21 12 21V21C10.895 21 10 20.105 10 19Z" stroke="#FFECBF" stroke-width="1.5" stroke-linecap="round" stroke-linejoin="round"/>
<path fill-rule="evenodd" clip-rule="evenodd" d="M11 10H13C13.552 10 14 10.448 14 11V13C14 13.552 13.552 14 13 14H11C10.448 14 10 13.552 10 13V11C10 10.448 10.448 10 11 10Z" stroke="#FFECBF" stroke-width="1.5" stroke-linecap="round" stroke-linejoin="round"/>
<path opacity="0.5" d="M7 12H5.667C5.299 12 5 11.702 5 11.333V10" stroke="#FFECBF" stroke-width="1.5" stroke-linecap="round" stroke-linejoin="round"/>
<path opacity="0.5" d="M17 12H18.334C18.702 12 19 12.298 19 12.666V14" stroke="#FFECBF" stroke-width="1.5" stroke-linecap="round" stroke-linejoin="round"/>
</svg>
