<svg width="24" height="24" viewBox="0 0 24 24" fill="none" xmlns="http://www.w3.org/2000/svg">
<path d="M20 20.0003V9.78027" stroke="#2BC4C3" stroke-width="1.5" stroke-linecap="round" stroke-linejoin="round"/>
<path fill-rule="evenodd" clip-rule="evenodd" d="M4.30059 9.778C2.60259 9.766 1.49559 8.085 2.23159 6.636L3.94759 3.259C4.33759 2.489 5.15959 2 6.06159 2H17.9376C18.8396 2 19.6616 2.489 20.0526 3.259L21.7686 6.636C22.5046 8.085 21.3976 9.766 19.6996 9.778C18.2826 9.778 17.1336 8.81 17.1336 7.615V7.567C17.1336 8.788 15.9846 9.778 14.5676 9.778C13.1486 9.778 11.9996 8.788 11.9996 7.567C11.9996 8.788 10.8506 9.778 9.43359 9.778C8.01659 9.778 6.86759 8.788 6.86759 7.567V7.615C6.86659 8.81 5.71759 9.778 4.30059 9.778Z" stroke="#2BC4C3" stroke-width="1.5" stroke-linecap="round" stroke-linejoin="round"/>
<path d="M16 20H21" stroke="#2BC4C3" stroke-width="1.5" stroke-linecap="round" stroke-linejoin="round"/>
<path d="M4.60078 14.9502H11.0008L10.3008 18.4502H5.30078L4.30078 13.4502H3.05078" stroke="#65419A" stroke-width="1.5" stroke-linecap="round" stroke-linejoin="round"/>
<path d="M9.83433 20.9147C9.85433 20.9347 9.85433 20.9657 9.83433 20.9857C9.81433 21.0057 9.78333 21.0057 9.76333 20.9857C9.74333 20.9657 9.74333 20.9347 9.76333 20.9147C9.78333 20.8947 9.81533 20.8947 9.83433 20.9147" stroke="#65419A" stroke-width="1.5" stroke-linecap="round" stroke-linejoin="round"/>
<path d="M5.83433 20.9147C5.85433 20.9347 5.85433 20.9657 5.83433 20.9857C5.81433 21.0057 5.78333 21.0057 5.76333 20.9857C5.74333 20.9657 5.74333 20.9347 5.76333 20.9147C5.78333 20.8947 5.81533 20.8947 5.83433 20.9147" stroke="#65419A" stroke-width="1.5" stroke-linecap="round" stroke-linejoin="round"/>
</svg>
