<svg width="26" height="25" viewBox="0 0 26 25" fill="none" xmlns="http://www.w3.org/2000/svg">
<path d="M13.0008 7.22461C14.1059 7.22461 15.0017 8.12041 15.0017 9.22544C15.0017 10.3305 14.1059 11.2263 13.0008 11.2263C11.8958 11.2263 11 10.3305 11 9.22544C11 8.12041 11.8958 7.22461 13.0008 7.22461" stroke="#FFECBF" stroke-width="1.5" stroke-linecap="round" stroke-linejoin="round"/>
<path opacity="0.5" d="M17.0033 15.0064C16.887 14.7137 16.7065 14.4508 16.4751 14.2371V14.2371C16.0853 13.8747 15.5728 13.6731 15.0405 13.6729H10.9638C10.4313 13.6732 9.91849 13.8747 9.52822 14.2371V14.2371C9.29737 14.4513 9.11695 14.714 9 15.0064" stroke="#FFECBF" stroke-width="1.5" stroke-linecap="round" stroke-linejoin="round"/>
<path fill-rule="evenodd" clip-rule="evenodd" d="M15.0007 19.0076H19.0023C20.6599 19.0076 22.0036 17.6639 22.0036 16.0064V6.00223C22.0036 4.34468 20.6599 3.00098 19.0023 3.00098H6.99734C5.3398 3.00098 3.99609 4.34468 3.99609 6.00223V16.0064C3.99609 17.6639 5.3398 19.0076 6.99734 19.0076H10.999L12.9998 21.0085L15.0007 19.0076Z" stroke="#FFECBF" stroke-width="1.5" stroke-linecap="round" stroke-linejoin="round"/>
</svg>
