<svg width="103" height="125" viewBox="0 0 103 125" fill="none" xmlns="http://www.w3.org/2000/svg">
<path d="M51 96C77.5089 96 99 74.5512 99 48C99 21.4488 77.5089 0 51 0C24.4911 0 3 21.4488 3 48C3 74.5512 24.4911 96 51 96Z" fill="url(#paint0_linear)"/>
<mask id="mask0" mask-type="alpha" maskUnits="userSpaceOnUse" x="3" y="0" width="96" height="96">
<path d="M51 96C77.5089 96 99 74.5512 99 48C99 21.4488 77.5089 0 51 0C24.4911 0 3 21.4488 3 48C3 74.5512 24.4911 96 51 96Z" fill="#D6B5E2"/>
</mask>
<g mask="url(#mask0)">
<path d="M87.2704 82.6266C78.3948 93.2647 65.0501 100 50.0687 100C35.7167 100 22.8755 93.7682 14 83.8855C15.5107 82.6896 17.3991 81.6195 19.7282 80.6752L21.4907 79.9828C24.8269 78.6609 29.1702 77.0243 35.0243 74.5694C36.3462 74.0029 37.4163 72.9957 37.9828 71.6738C38.2976 70.9814 38.4864 70.1631 38.4864 69.3448V58.4549C38.2976 58.2031 38.1087 58.0143 37.9828 57.7625C37.0386 56.3777 36.4092 54.7411 36.2203 52.9785L35.2761 52.5379C32.4435 53.2303 32.6323 50.2089 31.9399 44.4177C31.6252 42.0257 32.0029 41.5222 33.073 41.1445L33.9542 39.9485C28.5408 27.6738 31.2475 19.9943 36.598 17.2876C34.8355 13.3848 34.7096 12 34.7096 12C34.7096 12 46.103 13.8884 50.0687 13.133C55.0415 12.1259 62.721 13.3219 65.5536 19.9313C70.2747 21.8197 72.1631 24.7783 72.5408 28.0515C73.2332 33.2132 70.2747 38.8784 69.7081 41.0815C69.7711 41.2074 69.834 41.2704 69.834 41.3333C70.5894 41.711 70.8412 42.3405 70.5894 44.4177C69.897 49.8941 70.0858 53.2933 67.2532 52.5379L64.7353 56.9442C64.6094 57.4478 64.6094 57.6366 64.5465 58.0143C64.4206 58.8326 64.4835 60.4692 64.4835 69.4707C64.4835 70.5408 64.7983 71.5479 65.3648 72.4921C65.9943 73.4363 66.8755 74.2546 68.0086 74.6953C68.0086 74.6953 68.0715 74.6953 68.1345 74.7582C74.618 77.4649 79.2761 79.2275 82.6752 80.5494C84.4378 81.1159 85.9485 81.8712 87.2704 82.6266Z" fill="white"/>
<path d="M69.8342 41.0186C70.086 39.6338 69.4565 37.9342 68.953 36.7382C68.89 36.5494 68.7641 36.3605 68.7012 36.1087C66.498 31.7024 61.6511 29.9399 56.993 29.6881C45.096 29.0587 44.0259 31.3247 40.312 27.9256C41.4451 29.6881 41.571 32.3948 39.8085 35.794C38.5495 38.186 36.1575 39.2561 34.0803 39.9485C28.6668 27.6738 31.3736 19.9943 36.7241 17.2876C34.9615 13.3848 34.8356 12 34.8356 12C34.8356 12 46.2291 13.8884 50.1318 13.133C55.1046 12.1259 62.7841 13.3219 65.6168 19.9313C70.3378 21.8197 72.1633 24.7783 72.6039 28.0515C73.2963 33.1502 70.4007 38.7525 69.8342 41.0186Z" fill="#2BC4C3"/>
<path opacity="0.35" d="M65.4903 72.366V74.5062H37.9824V71.7365C38.2972 71.0441 38.486 70.2258 38.486 69.4075V58.4547C38.2972 58.2029 38.1083 58.0141 37.9824 57.7623V57.1328C38.5489 58.14 39.3043 59.0842 40.2485 59.8395L48.8723 65.8195C50.8866 67.5191 53.7821 67.582 55.8594 65.9454L63.9166 58.7065C64.1684 58.4547 64.4831 58.2029 64.7349 57.9511C64.609 58.7694 64.672 60.4061 64.672 69.4075C64.609 70.4776 64.9238 71.5477 65.4903 72.366Z" fill="url(#paint1_linear)"/>
</g>
<path opacity="0.5" d="M2 101C3.10457 101 4 100.105 4 99C4 97.8954 3.10457 97 2 97C0.89543 97 0 97.8954 0 99C0 100.105 0.89543 101 2 101Z" fill="#D6B5E2"/>
<path opacity="0.5" d="M98 96C100.209 96 102 94.2091 102 92C102 89.7909 100.209 88 98 88C95.7909 88 94 89.7909 94 92C94 94.2091 95.7909 96 98 96Z" fill="#D6B5E2"/>
<path opacity="0.5" d="M4 6C5.10457 6 6 5.10457 6 4C6 2.89543 5.10457 2 4 2C2.89543 2 2 2.89543 2 4C2 5.10457 2.89543 6 4 6Z" fill="#D6B5E2"/>
<path opacity="0.5" d="M102 23C102.552 23 103 22.5523 103 22C103 21.4477 102.552 21 102 21C101.448 21 101 21.4477 101 22C101 22.5523 101.448 23 102 23Z" fill="#D6B5E2"/>
<g filter="url(#filter0_d)">
<path d="M62.7311 101.447C62.4859 102.486 62.1181 103.586 61.689 104.503C60.5243 106.763 58.6853 108.536 56.4173 109.697C54.0879 110.858 51.3294 111.346 48.5709 110.735C42.0732 109.391 37.9048 103.036 39.2534 96.5587C40.602 90.0814 46.9158 85.865 53.4136 87.2705C55.743 87.7593 57.7658 88.9204 59.4822 90.5091C62.3633 93.3811 63.5893 97.5364 62.7311 101.447Z" fill="#2BC4C3"/>
</g>
<path d="M51 95V103" stroke="white" stroke-width="1.5" stroke-linecap="round" stroke-linejoin="round"/>
<path d="M55 99H47" stroke="white" stroke-width="1.5" stroke-linecap="round" stroke-linejoin="round"/>
<defs>
<filter id="filter0_d" x="31" y="85" width="40" height="40" filterUnits="userSpaceOnUse" color-interpolation-filters="sRGB">
<feFlood flood-opacity="0" result="BackgroundImageFix"/>
<feColorMatrix in="SourceAlpha" type="matrix" values="0 0 0 0 0 0 0 0 0 0 0 0 0 0 0 0 0 0 127 0"/>
<feOffset dy="6"/>
<feGaussianBlur stdDeviation="4"/>
<feColorMatrix type="matrix" values="0 0 0 0 0.168627 0 0 0 0 0.768627 0 0 0 0 0.764706 0 0 0 0.2 0"/>
<feBlend mode="normal" in2="BackgroundImageFix" result="effect1_dropShadow"/>
<feBlend mode="normal" in="SourceGraphic" in2="effect1_dropShadow" result="shape"/>
</filter>
<linearGradient id="paint0_linear" x1="208.5" y1="-69" x2="10.5" y2="82" gradientUnits="userSpaceOnUse">
<stop stop-color="#8F7DD1"/>
<stop offset="1" stop-color="#8F7DD1" stop-opacity="0"/>
</linearGradient>
<linearGradient id="paint1_linear" x1="51.7364" y1="57.1328" x2="51.7364" y2="74.5062" gradientUnits="userSpaceOnUse">
<stop stop-color="#2BC4C3"/>
<stop offset="1" stop-color="#2BC4C3" stop-opacity="0"/>
</linearGradient>
</defs>
</svg>
