<svg width="24" height="24" viewBox="0 0 24 24" fill="none" xmlns="http://www.w3.org/2000/svg">
<path d="M12.0002 13.2043V12.9643C12.0002 12.1773 12.4862 11.7513 12.9742 11.4243C13.4502 11.1043 13.9272 10.6863 13.9272 9.91526C13.9272 8.85126 13.0652 7.98926 12.0012 7.98926C10.9372 7.98926 10.0742 8.84926 10.0742 9.91326" stroke="#65419A" stroke-width="1.5" stroke-linecap="round" stroke-linejoin="round"/>
<path d="M11.999 15.9188C11.903 15.9188 11.825 15.9968 11.826 16.0928C11.826 16.1888 11.904 16.2668 12 16.2668C12.096 16.2668 12.174 16.1888 12.174 16.0928C12.174 15.9958 12.096 15.9188 11.999 15.9188" stroke="#65419A" stroke-width="1.5" stroke-linecap="round" stroke-linejoin="round"/>
<path d="M18.2548 15.128L20.0417 16.021C20.6487 14.81 20.9987 13.447 20.9987 12C20.9987 7.029 16.9698 3 11.9988 3C9.79575 3 7.78075 3.794 6.21875 5.11" stroke="#2BC4C3" stroke-width="1.5" stroke-linecap="round" stroke-linejoin="round"/>
<path d="M5.744 8.87154L3.957 7.97754C3.35 9.18954 3 10.5525 3 11.9995C3 16.9695 7.029 20.9995 12 20.9995C14.203 20.9995 16.218 20.2055 17.78 18.8895" stroke="#2BC4C3" stroke-width="1.5" stroke-linecap="round" stroke-linejoin="round"/>
</svg>
