<svg width="202" height="95" viewBox="0 0 202 95" fill="none" xmlns="http://www.w3.org/2000/svg">
<g filter="url(#filter0_d)">
<rect x="20.6992" y="0.0136719" width="180.987" height="68.9474" rx="24" fill="white"/>
</g>
<path d="M173.317 56.6136C173.397 56.5954 173.481 56.5972 173.569 56.6188L196.736 62.2887C197 62.3436 197.209 62.5682 197.262 62.8491C197.316 63.13 197.201 63.4075 196.975 63.5638L191.522 67.3747L198.523 72.6752C198.674 72.7872 198.775 72.9527 198.786 73.1386C198.817 73.32 198.763 73.4997 198.651 73.6509L196.067 77.2776C195.955 77.4289 195.799 77.5272 195.618 77.5582C195.436 77.5891 195.257 77.5359 195.105 77.4239L188.105 72.1234L186.146 78.5807C186.066 78.8292 185.849 79.0253 185.566 79.069C185.301 79.0983 185.038 78.9592 184.892 78.7309L172.833 57.6561C172.692 57.4056 172.71 57.1187 172.866 56.8842C172.98 56.7429 173.136 56.6446 173.317 56.6136Z" fill="#2BC4C3"/>
<rect opacity="0.4" x="36.8594" y="18.3271" width="32.3191" height="32.3191" rx="16.1595" fill="#D6B5E2"/>
<rect x="79.9512" y="26.9453" width="103.421" height="4.30921" rx="2.15461" fill="#8F7DD1"/>
<rect opacity="0.4" x="79.9512" y="37.7188" width="68.9474" height="4.30921" rx="2.15461" fill="#D6B5E2"/>
<path fill-rule="evenodd" clip-rule="evenodd" d="M49.0646 32.3332V40.2334C49.0646 40.6299 49.3864 40.9516 49.7828 40.9516H56.2466C56.6431 40.9516 56.9648 40.6299 56.9648 40.2334V32.3332" fill="#65419A"/>
<path fill-rule="evenodd" clip-rule="evenodd" d="M49.0662 35.2052H46.9116C46.5151 35.2052 46.1934 34.8835 46.1934 34.487V31.1948C46.1934 30.3559 46.6803 29.5932 47.4416 29.2398L49.9294 28.0864C50.476 27.8329 51.1231 27.9478 51.5497 28.3737L52.5085 29.3325C52.7893 29.6133 53.2439 29.6133 53.524 29.3325L54.4828 28.3737C54.9087 27.9478 55.5558 27.8329 56.1031 28.0864L58.591 29.2398C59.3523 29.5925 59.8392 30.3552 59.8392 31.1948V34.487C59.8392 34.8835 59.5174 35.2052 59.121 35.2052H56.9664" fill="#65419A"/>
<defs>
<filter id="filter0_d" x="0.230467" y="0.0136719" width="201.456" height="94.8026" filterUnits="userSpaceOnUse" color-interpolation-filters="sRGB">
<feFlood flood-opacity="0" result="BackgroundImageFix"/>
<feColorMatrix in="SourceAlpha" type="matrix" values="0 0 0 0 0 0 0 0 0 0 0 0 0 0 0 0 0 0 127 0"/>
<feOffset dx="-10.773" dy="16.1595"/>
<feGaussianBlur stdDeviation="4.84786"/>
<feColorMatrix type="matrix" values="0 0 0 0 0.0669097 0 0 0 0 0.172136 0 0 0 0 0.341667 0 0 0 0.04 0"/>
<feBlend mode="normal" in2="BackgroundImageFix" result="effect1_dropShadow"/>
<feBlend mode="normal" in="SourceGraphic" in2="effect1_dropShadow" result="shape"/>
</filter>
</defs>
</svg>
