<svg width="226" height="91" viewBox="0 0 226 91" fill="none" xmlns="http://www.w3.org/2000/svg">
<g filter="url(#filter0_d)">
<rect x="9" width="208" height="67" rx="33.5" fill="white"/>
</g>
<rect opacity="0.5" x="23" y="14" width="39.2308" height="40" rx="19.6154" stroke="#8F7DD1" stroke-linecap="round" stroke-dasharray="1 4"/>
<rect x="75" y="22" width="57.8654" height="4" rx="2" fill="#2BC4C3"/>
<rect opacity="0.8" x="75" y="32" width="118" height="4" rx="2" fill="#CEE2EC"/>
<rect opacity="0.8" x="75" y="42" width="102" height="4" rx="2" fill="#CEE2EC"/>
<path d="M49.1628 31.1459C49.764 31.1459 50.3517 30.9676 50.8516 30.6336C51.3514 30.2996 51.7411 29.8248 51.9711 29.2694C52.2012 28.714 52.2614 28.1028 52.1441 27.5131C52.0268 26.9235 51.7373 26.3818 51.3122 25.9567C50.8871 25.5316 50.3454 25.2421 49.7558 25.1248C49.1661 25.0075 48.555 25.0677 47.9995 25.2978C47.4441 25.5279 46.9693 25.9175 46.6353 26.4174C46.3013 26.9172 46.123 27.5049 46.123 28.1061C46.123 28.9123 46.4433 29.6855 47.0134 30.2556C47.5834 30.8256 48.3566 31.1459 49.1628 31.1459Z" fill="#372158"/>
<path d="M45.9998 40.1101C44.4368 40.11 42.9205 39.5769 41.7013 38.5988C40.4822 37.6207 39.633 36.2561 39.2939 34.7303C39.1852 34.3838 39.1298 34.0226 39.1298 33.6594V29.55C39.114 28.794 38.8025 28.0742 38.2623 27.5451C37.722 27.016 36.9959 26.7197 36.2397 26.7197C35.4835 26.7197 34.7574 27.016 34.2171 27.5451C33.6768 28.0742 33.3654 28.794 33.3496 29.55V33.5167C33.3496 38.7778 37.6345 43.1032 42.8944 42.9983C44.5807 42.9641 46.2263 42.4745 47.6571 41.5815C49.0879 40.6884 50.2507 39.4252 51.0222 37.9254C50.3805 38.6156 49.6032 39.166 48.739 39.5419C47.8748 39.9179 46.9422 40.1113 45.9998 40.1101Z" fill="#2BC4C3"/>
<path d="M52.0568 33.5451C52.0568 33.3244 51.9691 33.1127 51.8131 32.9566C51.657 32.8006 51.4453 32.7129 51.2246 32.7129H47.0975C46.8768 32.7129 46.6651 32.8006 46.509 32.9566C46.353 33.1127 46.2653 33.3244 46.2653 33.5451V33.6613C46.2645 34.5134 45.959 35.3371 45.4038 35.9835C44.8486 36.6299 44.0804 37.0564 43.2382 37.1857C42.396 37.3151 41.5353 37.1388 40.8117 36.6889C40.0881 36.2389 39.5494 35.5448 39.293 34.7322C39.564 35.9539 40.1636 37.0782 41.0271 37.9839C41.8905 38.8895 42.9851 39.5421 44.1924 39.871C45.3997 40.1999 46.674 40.1927 47.8775 39.8501C49.081 39.5075 50.1681 38.8427 51.0213 37.9273C51.7037 36.604 52.0588 35.1363 52.0568 33.6474V33.5451Z" fill="url(#paint0_linear)"/>
<defs>
<filter id="filter0_d" x="0" y="0" width="226" height="91" filterUnits="userSpaceOnUse" color-interpolation-filters="sRGB">
<feFlood flood-opacity="0" result="BackgroundImageFix"/>
<feColorMatrix in="SourceAlpha" type="matrix" values="0 0 0 0 0 0 0 0 0 0 0 0 0 0 0 0 0 0 127 0"/>
<feOffset dy="15"/>
<feGaussianBlur stdDeviation="4.5"/>
<feColorMatrix type="matrix" values="0 0 0 0 1 0 0 0 0 1 0 0 0 0 1 0 0 0 0.04 0"/>
<feBlend mode="normal" in2="BackgroundImageFix" result="effect1_dropShadow"/>
<feBlend mode="normal" in="SourceGraphic" in2="effect1_dropShadow" result="shape"/>
</filter>
<linearGradient id="paint0_linear" x1="41.3514" y1="44.8365" x2="46.3701" y2="33.6411" gradientUnits="userSpaceOnUse">
<stop offset="0.29" stop-color="#0C9898"/>
<stop offset="1" stop-color="#2BC4C3"/>
</linearGradient>
</defs>
</svg>
