<svg width="312" height="96" viewBox="0 0 312 96" fill="none" xmlns="http://www.w3.org/2000/svg">
<g filter="url(#filter0_d)">
<rect x="16" y="8" width="280" height="64" rx="32" fill="white"/>
</g>
<rect opacity="0.5" x="28.7695" y="20" width="39.2308" height="40" rx="19.6154" stroke="#8F7DD1" stroke-linecap="round" stroke-dasharray="1 4"/>
<rect x="80.7695" y="28" width="57.8654" height="4" rx="2" fill="#2BC4C3"/>
<rect opacity="0.8" x="81" y="38" width="158" height="4" rx="2" fill="#CEE2EC"/>
<rect opacity="0.8" x="81" y="48" width="151" height="4" rx="2" fill="#CEE2EC"/>
<path d="M54.9323 37.1449C55.5335 37.1449 56.1212 36.9666 56.6211 36.6326C57.121 36.2986 57.5106 35.8239 57.7407 35.2684C57.9707 34.713 58.0309 34.1018 57.9136 33.5121C57.7963 32.9225 57.5068 32.3809 57.0817 31.9557C56.6566 31.5306 56.115 31.2411 55.5253 31.1238C54.9357 31.0065 54.3245 31.0667 53.7691 31.2968C53.2136 31.5269 52.7389 31.9165 52.4049 32.4164C52.0709 32.9163 51.8926 33.504 51.8926 34.1052C51.8926 34.9113 52.2128 35.6845 52.7829 36.2546C53.353 36.8246 54.1261 37.1449 54.9323 37.1449Z" fill="#372158"/>
<path d="M51.7693 46.1092C50.2063 46.109 48.69 45.5759 47.4709 44.5978C46.2517 43.6197 45.4025 42.2551 45.0635 40.7293C44.9547 40.3828 44.8993 40.0217 44.8993 39.6584V35.549C44.8835 34.793 44.5721 34.0733 44.0318 33.5442C43.4915 33.0151 42.7654 32.7188 42.0092 32.7188C41.253 32.7188 40.5269 33.0151 39.9867 33.5442C39.4464 34.0733 39.1349 34.793 39.1191 35.549V39.5157C39.1191 44.7768 43.4041 49.1022 48.6639 48.9974C50.3502 48.9631 51.9958 48.4735 53.4266 47.5805C54.8574 46.6875 56.0202 45.4242 56.7918 43.9244C56.1501 44.6147 55.3728 45.165 54.5085 45.5409C53.6443 45.9169 52.7118 46.1103 51.7693 46.1092Z" fill="#2BC4C3"/>
<path d="M57.8263 39.5441C57.8263 39.3234 57.7387 39.1117 57.5826 38.9557C57.4265 38.7996 57.2148 38.7119 56.9941 38.7119H52.867C52.6463 38.7119 52.4346 38.7996 52.2786 38.9557C52.1225 39.1117 52.0348 39.3234 52.0348 39.5441V39.6603C52.0341 40.5124 51.7285 41.3361 51.1733 41.9826C50.6181 42.629 49.85 43.0554 49.0077 43.1848C48.1655 43.3141 47.3048 43.1379 46.5812 42.6879C45.8576 42.2379 45.3189 41.5438 45.0625 40.7312C45.3335 41.9529 45.9331 43.0772 46.7966 43.9829C47.6601 44.8886 48.7546 45.5411 49.9619 45.87C51.1693 46.1989 52.4435 46.1917 53.647 45.8491C54.8506 45.5066 55.9376 44.8417 56.7908 43.9263C57.4732 42.603 57.8284 41.1353 57.8263 39.6464V39.5441Z" fill="url(#paint0_linear)"/>
<defs>
<filter id="filter0_d" x="0" y="0" width="312" height="96" filterUnits="userSpaceOnUse" color-interpolation-filters="sRGB">
<feFlood flood-opacity="0" result="BackgroundImageFix"/>
<feColorMatrix in="SourceAlpha" type="matrix" values="0 0 0 0 0 0 0 0 0 0 0 0 0 0 0 0 0 0 127 0"/>
<feOffset dy="8"/>
<feGaussianBlur stdDeviation="8"/>
<feColorMatrix type="matrix" values="0 0 0 0 0.215686 0 0 0 0 0.117647 0 0 0 0 0.337255 0 0 0 0.06 0"/>
<feBlend mode="normal" in2="BackgroundImageFix" result="effect1_dropShadow"/>
<feBlend mode="normal" in="SourceGraphic" in2="effect1_dropShadow" result="shape"/>
</filter>
<linearGradient id="paint0_linear" x1="47.121" y1="50.8355" x2="52.1396" y2="39.6401" gradientUnits="userSpaceOnUse">
<stop offset="0.29" stop-color="#0C9898"/>
<stop offset="1" stop-color="#2BC4C3"/>
</linearGradient>
</defs>
</svg>
