<svg width="625" height="386" viewBox="0 0 625 386" fill="none" xmlns="http://www.w3.org/2000/svg">
<path d="M0.164062 23.3262H625V378.001C625 382.419 621.418 386.001 617 386.001H0.164062V23.3262Z" fill="white"/>
<path d="M0.164062 23.3262H625V378.001C625 382.419 621.418 386.001 617 386.001H0.164062V23.3262Z" fill="url(#paint0_linear)"/>
<path d="M0.164062 12.3262C0.164062 5.69875 5.53665 0.326172 12.1641 0.326172H625V24.0268H0.164062V12.3262Z" fill="#0C9898"/>
<circle cx="29.6933" cy="12.7157" r="2.69326" fill="white"/>
<circle cx="40.4667" cy="12.7147" r="2.69326" fill="#A1DFDF"/>
<circle cx="51.2382" cy="12.7147" r="2.69326" fill="#A1DFDF"/>
<rect opacity="0.3" x="27.0977" y="291.197" width="360.896" height="74.3339" rx="8" fill="#CEE2EC"/>
<rect x="48.6426" y="315" width="103.421" height="4.30921" rx="2.15461" fill="#2BC4C3"/>
<rect x="49" y="327" width="249" height="5" rx="2.5" fill="#CEE2EC"/>
<rect x="49" y="340" width="229" height="4" rx="2" fill="#CEE2EC"/>
<rect opacity="0.3" x="27.0977" y="53.1133" width="360.896" height="214.383" rx="8" fill="#CEE2EC"/>
<rect x="414.926" y="144.685" width="20.4688" height="20.4688" rx="10.2344" fill="#CEE2EC"/>
<rect x="414.926" y="296.584" width="20.4688" height="20.4688" rx="10.2344" fill="#CEE2EC"/>
<rect x="414.926" y="335.367" width="20.4688" height="20.4688" rx="10.2344" fill="#CEE2EC"/>
<rect x="414.926" y="106.979" width="20.4688" height="20.4688" rx="10.2344" fill="#CEE2EC"/>
<rect x="414.926" y="69.2734" width="20.4688" height="20.4688" rx="10.2344" fill="#CEE2EC"/>
<rect x="445.09" y="301.971" width="103.421" height="4.30921" rx="2.15461" fill="#CEE2EC"/>
<rect x="445.09" y="111.288" width="103.421" height="4.30921" rx="2.15461" fill="#CEE2EC"/>
<rect x="445.09" y="73.582" width="103.421" height="4.30921" rx="2.15461" fill="#CEE2EC"/>
<rect x="445.09" y="339.676" width="103.421" height="4.30921" rx="2.15461" fill="#CEE2EC"/>
<rect x="445.09" y="148.993" width="103.421" height="4.30921" rx="2.15461" fill="#CEE2EC"/>
<rect opacity="0.5" x="445.09" y="310.589" width="68.9474" height="4.30921" rx="2.15461" fill="#CEE2EC"/>
<rect opacity="0.5" x="445.09" y="119.906" width="68.9474" height="4.30921" rx="2.15461" fill="#CEE2EC"/>
<rect opacity="0.5" x="445.09" y="82.2002" width="68.9474" height="4.30921" rx="2.15461" fill="#CEE2EC"/>
<rect opacity="0.5" x="445.09" y="348.294" width="68.9474" height="4.30921" rx="2.15461" fill="#CEE2EC"/>
<rect opacity="0.5" x="445.09" y="157.612" width="68.9474" height="4.30921" rx="2.15461" fill="#CEE2EC"/>
<rect opacity="0.5" x="414.926" y="192.086" width="184.727" height="72.7006" rx="8" stroke="#CEE2EC" stroke-linecap="round" stroke-linejoin="round" stroke-dasharray="5.39 5.39"/>
<g opacity="0.1">
<mask id="mask0" mask-type="alpha" maskUnits="userSpaceOnUse" x="27" y="53" width="361" height="215">
<rect x="27.0977" y="53.1133" width="360.896" height="214.383" rx="8" fill="url(#paint1_linear)"/>
</mask>
<g mask="url(#mask0)">
<path d="M20.1385 256.006L116.339 57.6226C117.677 54.8646 120.473 53.1133 123.538 53.1133H202.575C208.379 53.1133 212.252 59.1009 209.871 64.3947L120.648 262.778C119.357 265.65 116.501 267.496 113.352 267.496H27.3368C21.4321 267.496 17.5621 261.319 20.1385 256.006Z" fill="#A0CCE2"/>
<path d="M244.217 256.006L340.418 57.6226C341.755 54.8646 344.551 53.1133 347.616 53.1133H426.653C432.458 53.1133 436.33 59.1009 433.949 64.3947L344.726 262.778C343.435 265.65 340.579 267.496 337.43 267.496H251.415C245.51 267.496 241.64 261.319 244.217 256.006Z" fill="#A0CCE2"/>
<path d="M173.115 256.006L269.316 57.6226C270.653 54.8646 273.449 53.1133 276.514 53.1133H283.087C288.963 53.1133 292.834 59.2368 290.313 64.545L196.106 262.928C194.781 265.718 191.968 267.497 188.88 267.497H180.313C174.409 267.497 170.539 261.319 173.115 256.006Z" fill="#A0CCE2"/>
<path d="M-57.4279 256.006L38.773 57.6226C40.1104 54.8646 42.9061 53.1133 45.9713 53.1133H52.5438C58.4201 53.1133 62.2911 59.2368 59.7704 64.545L-34.4367 262.928C-35.7617 265.718 -38.5745 267.497 -41.6633 267.497H-50.2296C-56.1343 267.497 -60.0043 261.319 -57.4279 256.006Z" fill="#A0CCE2"/>
</g>
</g>
<mask id="mask1" mask-type="alpha" maskUnits="userSpaceOnUse" x="27" y="53" width="361" height="215">
<rect x="27.0977" y="53.1133" width="360.896" height="214.383" rx="8" fill="#46679D"/>
</mask>
<g mask="url(#mask1)">
<path d="M199.079 159.977C202.969 159.977 211.937 156.887 215.064 155.765L215.189 155.691L225.111 146.59L225.089 146.4C225.067 146.245 223.137 130.701 223.46 124.448L222.726 124.411C222.418 130.356 224.113 144.506 224.333 146.304L214.741 155.097C207.152 157.82 198.594 160.102 197.956 159.053C197.948 159.038 197.75 158.671 199.204 157.313C205.508 151.434 207.746 136.213 208.282 131.684C208.341 131.163 208.348 130.62 208.29 130.092L208.246 129.717L207.871 129.769C204.891 130.187 202.418 129.424 200.517 127.501C192.899 119.787 196.451 95.927 196.488 95.6921L195.761 95.582C195.607 96.5802 192.121 120.044 199.996 128.022C201.985 130.033 204.532 130.884 207.585 130.547C207.607 130.899 207.592 131.251 207.548 131.603C207.174 134.781 204.98 150.928 198.697 156.777C197.376 158.01 196.95 158.825 197.325 159.434C197.567 159.816 198.191 159.977 199.079 159.977Z" fill="#371E56"/>
<path d="M180.525 189.497L239.951 218.502L239.628 219.163L192.73 196.271L192.965 217.651V217.79L192.884 224.403C208.069 237.504 248.208 269.892 253.83 264.344L254.241 264.762C256.898 263.133 261.455 257.012 260.281 234.025C258.652 202.062 240.061 146.937 226.682 142.694C216.774 139.553 182.315 158.445 172.18 186.099C176.238 187.281 180.297 189.38 180.525 189.497Z" fill="#2BC4C3"/>
<path d="M153.944 296.657L159.213 299.087C159.228 298.911 159.235 298.786 159.235 298.72H159.969C159.969 298.822 159.955 299.057 159.918 299.41L166.252 302.338C178.971 263.785 185.283 256.049 185.635 255.638L186.193 256.122C186.171 256.144 185.745 256.665 184.916 258.053L188.086 277.626C188.086 277.626 218.522 278.074 240.658 274.794C240.907 274.757 241.157 274.72 241.399 274.683C243.689 274.331 245.883 273.942 247.938 273.502C248.181 273.45 248.423 273.399 248.658 273.348C252.181 272.57 255.263 271.645 257.678 270.559L252.709 265.59C252.504 265.619 252.283 265.634 252.056 265.634C239.66 265.634 194.347 226.633 192.277 224.842L192.152 224.732L192.233 217.95L191.352 217.07L175.463 201.246C173.18 201.386 171.147 201.143 169.371 200.52C169.364 200.776 169.356 201.033 169.356 201.29C169.327 206.596 170.303 212.094 172.542 217.716C172.542 219.345 159.815 288.496 153.944 296.657Z" fill="#2BC4C3"/>
<path d="M166.245 302.342L166.663 302.533L168.542 297.865C176.028 275.839 181.114 264.955 183.837 259.95L184.82 257.513L184.909 258.056C185.738 256.669 186.164 256.148 186.186 256.126L185.628 255.642C185.275 256.053 178.964 263.788 166.245 302.342Z" fill="#2BC4C3"/>
<path d="M192.288 195.243L239.949 218.501L239.626 219.162L192.728 196.27L192.963 217.65V217.789L192.882 224.402C208.067 237.502 248.206 269.891 253.828 264.342L254.239 264.761L254.342 264.864C253.931 265.267 253.38 265.502 252.705 265.59C252.5 265.619 252.279 265.634 252.052 265.634C239.656 265.634 194.343 226.633 192.273 224.842L192.148 224.732L192.229 217.951L191.348 217.07V216.035L192.222 216.908L191.987 195.911L191.348 195.602V194.78L192.288 195.243Z" fill="#371E56"/>
<path d="M166.747 480.456C182.651 513.395 201.755 535.765 201.946 535.993L202.056 536.117H253.365L193.513 410.189C204.126 393.448 212.346 377.617 218.702 363.225C218.841 362.917 218.98 362.608 219.113 362.3C227.927 342.19 233.109 324.921 236.14 311.945C240.587 292.936 241.307 279.667 241.402 274.683C241.16 274.72 240.91 274.757 240.661 274.793C240.536 280.085 239.685 294.404 234.577 314.998C234.518 315.248 234.452 315.49 234.393 315.739C231.098 328.855 226.092 344.48 218.474 361.911C218.423 362.036 218.364 362.168 218.305 362.3C211.847 377.037 203.517 393.074 192.786 409.969L192.676 410.138L192.764 410.321L252.206 535.383H202.394C200.823 533.519 182.636 511.685 167.4 480.118C152.772 449.829 137.954 404.12 150.387 358.403C157.514 332.216 163.569 312.554 168.552 297.861C176.038 275.836 181.124 264.951 183.847 259.946C184.258 259.183 184.618 258.559 184.919 258.052C185.748 256.665 186.174 256.144 186.196 256.122L185.638 255.638C185.286 256.049 178.974 263.784 166.255 302.338C162.71 313.083 158.666 326.22 154.116 342.264C154.02 342.594 153.925 342.924 153.829 343.262C152.494 347.988 151.106 352.972 149.683 358.212C137.184 404.149 152.061 450.042 166.747 480.456Z" fill="#371E56"/>
<path d="M195.37 99.4732C195.671 98.2255 196.625 97.4329 197.77 96.9412C200.75 95.6568 204.229 96.5375 206.438 98.9154C209.043 101.726 212.346 105.602 215.084 105.323C215.135 105.213 215.179 105.102 215.23 104.992C216.654 101.947 219.759 100.383 222.166 101.506C224.573 102.629 225.373 106.013 223.949 109.066C223.171 110.739 217.482 111.001 216.073 111.574C215.985 112.697 220.255 115.205 220.777 116.277C222.876 120.571 222.687 125.374 222.687 125.374C235.164 116.486 234.224 97.0219 223.663 89.7193C213.102 82.424 202.709 86.4606 199.12 88.4129C195.532 90.3798 195.37 99.4732 195.37 99.4732Z" fill="#371E56"/>
<path fill-rule="evenodd" clip-rule="evenodd" d="M200.98 91.2116C187.222 91.2116 210.362 76.3569 216.94 76.5696C224.744 76.8308 238.871 77.5271 242.391 94.3934C245.902 111.26 239.274 124.77 229.67 124.944C219.054 125.138 219.658 124.961 211.78 121.595" fill="#371E56"/>
<path fill-rule="evenodd" clip-rule="evenodd" d="M231.81 95.7948C223.734 113.433 180.37 109.795 187.627 85.2055C191.711 71.3437 205.214 86.789 212.205 85.2055C216.24 84.296 220.001 78.8471 224.495 81.8923C229.477 85.2786 234.3 90.3296 231.81 95.7948Z" fill="#371E56"/>
<path fill-rule="evenodd" clip-rule="evenodd" d="M237.343 97.956C228.973 93.1116 238.657 86.3638 245.232 83.0793C255.066 78.1848 269.402 80.7394 277.427 87.7448C288.812 97.6769 285.416 123.931 290.305 137.334C297.426 156.869 320.152 144.733 320.152 176.998C320.152 180.618 318.81 188.246 316.054 191.001C311.445 195.602 303.52 190.422 300.254 198C298.086 203.023 300.929 214.887 293.822 217.255C283.335 220.74 264.125 214.1 262.223 202.672C261.369 197.577 262.374 189.906 260.464 185.169C257.902 178.794 248.814 177.921 247.587 171.752C246.223 164.962 251.047 159.745 252.26 153.67C254.478 142.643 246.416 135.495 246.416 125.67C246.416 120.79 254.801 108.174 249.338 104.088C246.352 101.849 240.545 99.8093 237.343 97.956Z" fill="#371E56"/>
<path fill-rule="evenodd" clip-rule="evenodd" d="M303.168 173.369C303.506 173.369 303.836 173.219 304.051 172.926C309.514 165.512 312.062 159.852 309.887 151.194C308.566 145.884 304.805 142.285 301.166 138.807C297.813 135.602 294.648 132.575 293.277 128.317C291.381 122.399 291.647 116.024 291.913 109.863C292.394 98.6282 292.882 87.0074 280.155 78.3204C273.091 73.4974 257.184 73.9912 246.115 79.3937C238.886 82.9143 234.716 88.0521 234.364 93.8553C234.328 94.4564 234.787 94.9716 235.383 95.0074C235.986 95.0575 236.503 94.5852 236.539 93.9913C236.934 87.587 242.483 83.5798 247.077 81.3401C257.536 76.2381 272.416 75.6656 278.927 80.1093C290.656 88.1165 290.211 98.6353 289.738 109.77C289.465 116.124 289.192 122.7 291.202 128.983C292.738 133.763 296.256 137.126 299.658 140.374C303.226 143.788 306.6 147.015 307.77 151.716C309.744 159.595 307.468 164.604 302.285 171.638C301.926 172.124 302.034 172.804 302.522 173.162C302.723 173.298 302.946 173.369 303.168 173.369Z" fill="#371E56"/>
<path d="M149.965 182.254C151.865 183.597 155.719 186.07 160.181 187.545C160.298 187.589 160.379 187.707 160.386 187.846C160.474 189.52 161.076 195.259 165.157 198.899C166.361 199.978 167.77 200.771 169.355 201.292C171.183 201.886 173.26 202.121 175.564 201.982C175.608 201.974 175.667 201.989 175.711 202.018L192.07 217.82L192.085 217.805L192.584 217.292L191.351 216.103L176.173 201.453C175.946 201.292 175.726 201.226 175.52 201.248H175.461C173.179 201.387 171.146 201.145 169.37 200.521C167.961 200.037 166.72 199.31 165.649 198.349C161.781 194.899 161.208 189.41 161.12 187.81C161.098 187.362 160.819 186.988 160.408 186.848C156.041 185.41 152.254 182.973 150.39 181.652C150.243 181.549 150.229 181.373 150.258 181.248C150.273 181.197 150.331 181.021 150.508 181.006C160.291 179.89 186.867 193.197 191.351 195.486C191.747 195.685 191.975 195.802 191.997 195.817L192.29 195.244H192.298L192.334 195.164C191.813 194.892 186.426 192.088 179.513 188.991C179.381 188.932 179.248 188.874 179.124 188.815C178.111 188.36 177.061 187.905 175.997 187.443C175.924 187.413 175.858 187.384 175.784 187.355C174.632 186.863 173.45 186.371 172.261 185.887C164.034 182.547 155.315 179.722 150.427 180.272C150.001 180.323 149.656 180.632 149.546 181.065C149.429 181.52 149.59 181.989 149.965 182.254Z" fill="#371E56"/>
</g>
<defs>
<linearGradient id="paint0_linear" x1="312.582" y1="434.5" x2="298.5" y2="219.5" gradientUnits="userSpaceOnUse">
<stop stop-color="#D8E8F0" stop-opacity="0.4"/>
<stop offset="1" stop-color="white" stop-opacity="0"/>
</linearGradient>
<linearGradient id="paint1_linear" x1="207.546" y1="53.1133" x2="207.546" y2="267.497" gradientUnits="userSpaceOnUse">
<stop stop-color="#46679D"/>
<stop offset="1" stop-color="#46679D" stop-opacity="0"/>
</linearGradient>
</defs>
</svg>
