<svg width="192" height="88" viewBox="0 0 192 88" fill="none" xmlns="http://www.w3.org/2000/svg">
<g filter="url(#filter0_d)">
<rect x="8" width="160" height="56" rx="28" fill="white"/>
</g>
<rect x="61" y="21" width="51" height="4" rx="2" fill="#8F7DD1"/>
<rect opacity="0.4" x="61" y="31" width="78" height="4" rx="2" fill="#D6B5E2"/>
<circle opacity="0.4" cx="36" cy="28" r="15" fill="#D6B5E2"/>
<path d="M31.4763 23.9687L30.976 21.7188H29.5293" stroke="#65419A" stroke-width="1.5" stroke-linecap="round" stroke-linejoin="round"/>
<path fill-rule="evenodd" clip-rule="evenodd" d="M32.7981 30.1263L31.4766 23.9688H40.9701C41.4478 23.9688 41.8033 24.409 41.7036 24.8763L40.5771 30.1263C40.5028 30.472 40.1976 30.7188 39.8436 30.7188H33.5308C33.1776 30.7188 32.8723 30.472 32.7981 30.1263Z" fill="#65419A" stroke="#65419A" stroke-width="1.5" stroke-linecap="round" stroke-linejoin="round"/>
<path d="M40.0981 33.4375C39.9429 33.4375 39.8169 33.5635 39.8184 33.7188C39.8184 33.874 39.9444 34 40.0996 34C40.2549 34 40.3809 33.874 40.3809 33.7188C40.3801 33.5635 40.2541 33.4375 40.0981 33.4375" stroke="#65419A" stroke-width="1.5" stroke-linecap="round" stroke-linejoin="round"/>
<path d="M33.6415 33.4375C33.4862 33.4375 33.3602 33.5635 33.3617 33.7188C33.361 33.874 33.487 34 33.6422 34C33.7975 34 33.9235 33.874 33.9235 33.7188C33.9235 33.5635 33.7975 33.4375 33.6415 33.4375" stroke="#65419A" stroke-width="1.5" stroke-linecap="round" stroke-linejoin="round"/>
<defs>
<filter id="filter0_d" x="0" y="0" width="192" height="88" filterUnits="userSpaceOnUse" color-interpolation-filters="sRGB">
<feFlood flood-opacity="0" result="BackgroundImageFix"/>
<feColorMatrix in="SourceAlpha" type="matrix" values="0 0 0 0 0 0 0 0 0 0 0 0 0 0 0 0 0 0 127 0"/>
<feOffset dx="8" dy="16"/>
<feGaussianBlur stdDeviation="8"/>
<feColorMatrix type="matrix" values="0 0 0 0 0.0669097 0 0 0 0 0.172136 0 0 0 0 0.341667 0 0 0 0.04 0"/>
<feBlend mode="normal" in2="BackgroundImageFix" result="effect1_dropShadow"/>
<feBlend mode="normal" in="SourceGraphic" in2="effect1_dropShadow" result="shape"/>
</filter>
</defs>
</svg>
