<svg width="34" height="34" viewBox="0 0 34 34" fill="none" xmlns="http://www.w3.org/2000/svg">
<path fill-rule="evenodd" clip-rule="evenodd" d="M34 16.9906C34 26.3595 26.3891 34 16.9913 34C7.61231 34 0 26.3595 0 16.9906C0 7.63892 7.61231 0 16.9913 0C26.3891 0 34 7.63892 34 16.9906Z" fill="black"/>
<path fill-rule="evenodd" clip-rule="evenodd" d="M30.5769 16.9906C30.5769 19.2101 30.5575 21.375 30.3585 23.485C30.2298 24.6494 29.6666 24.9042 28.5911 25.0133C24.9131 25.4135 20.8156 25.4863 16.9913 25.4863C13.1851 25.4863 9.08738 25.4136 5.40868 25.0133C4.33442 24.9042 3.76975 24.6494 3.6423 23.485C3.44202 21.375 3.42383 19.2101 3.42383 16.9906C3.42383 14.7894 3.44205 12.6245 3.6423 10.5144C3.76975 9.35051 4.33442 9.09595 5.40868 8.98685C9.08738 8.58685 13.1851 8.49474 16.9913 8.51413C20.8156 8.49474 24.9131 8.58681 28.5911 8.98685C29.6666 9.09595 30.2298 9.35051 30.3585 10.5144C30.5575 12.6245 30.5769 14.7894 30.5769 16.9906Z" fill="white"/>
<path fill-rule="evenodd" clip-rule="evenodd" d="M10.0879 16.9907C10.0879 13.2069 13.1658 10.1143 16.9901 10.1143C20.8327 10.1143 23.9103 13.2069 23.9103 16.9907C23.9103 20.7928 20.8327 23.8672 16.9901 23.8672C13.1658 23.8672 10.0879 20.7928 10.0879 16.9907Z" fill="black"/>
</svg>
