<svg width="215" height="32" viewBox="0 0 215 32" fill="none" xmlns="http://www.w3.org/2000/svg">
<g clip-path="url(#clip0)">
<path d="M28.1929 10.8083C29.2648 10.8083 30.3126 10.4913 31.2038 9.89751C32.0951 9.3037 32.7897 8.45969 33.1999 7.47221C33.6101 6.48474 33.7174 5.39814 33.5083 4.34984C33.2992 3.30154 32.783 2.33862 32.0251 1.58284C31.2672 0.827055 30.3015 0.312361 29.2502 0.103841C28.1989 -0.104678 27.1093 0.00234152 26.119 0.411368C25.1287 0.820394 24.2823 1.51306 23.6868 2.40176C23.0913 3.29047 22.7734 4.3353 22.7734 5.40414C22.7734 6.83741 23.3444 8.21197 24.3608 9.22544C25.3771 10.2389 26.7556 10.8083 28.1929 10.8083Z" fill="#371E56"/>
<path d="M22.5532 26.7465C19.7663 26.7458 17.0629 25.7976 14.8891 24.0585C12.7154 22.3193 11.2013 19.8931 10.5966 17.1803C10.4033 16.564 10.305 15.9221 10.3049 15.2763V7.97282C10.3049 6.61017 9.76206 5.30334 8.79579 4.3398C7.82952 3.37627 6.51897 2.83496 5.15246 2.83496C3.78594 2.83496 2.47539 3.37627 1.50912 4.3398C0.542846 5.30334 0 6.61017 0 7.97282L0 15.0224C0 24.3761 7.63915 32.0644 17.0164 31.8782C20.0228 31.8182 22.9569 30.9484 25.508 29.3611C28.0591 27.7738 30.1321 25.5279 31.5075 22.8615C30.3632 24.0885 28.9774 25.0668 27.4367 25.7352C25.8959 26.4037 24.2334 26.748 22.5532 26.7465Z" fill="#2BC4C3"/>
<path d="M33.3511 15.07C33.3511 14.6777 33.1948 14.3015 32.9166 14.0241C32.6384 13.7467 32.2611 13.5908 31.8677 13.5908H24.5095C24.1161 13.5908 23.7388 13.7467 23.4606 14.0241C23.1824 14.3015 23.0261 14.6777 23.0261 15.07V15.2762C23.0249 16.7912 22.4802 18.2556 21.4904 19.4049C20.5006 20.5542 19.1311 21.3123 17.6295 21.5423C16.1279 21.7723 14.5933 21.459 13.3033 20.6589C12.0132 19.8589 11.0528 18.6249 10.5957 17.1802C11.0786 19.3524 12.1475 21.3516 13.6869 22.962C15.2264 24.5724 17.1779 25.7327 19.3306 26.3176C21.4833 26.9025 23.7554 26.8896 25.9013 26.2805C28.0472 25.6714 29.9854 24.4891 31.5065 22.8614C32.7218 20.5086 33.3543 17.8997 33.3511 15.2532V15.07Z" fill="url(#paint0_linear)"/>
<path d="M96.9259 6.08008C95.9997 6.11086 95.2773 6.73732 95.2773 7.69316C95.2773 8.649 95.9966 9.30624 96.9259 9.30624C97.8829 9.30624 98.6022 8.649 98.6022 7.69316C98.6022 6.73732 97.8829 6.08008 96.9259 6.08008Z" fill="#371E56"/>
<path d="M108.341 11.9043C105.827 11.9043 104.03 13.188 103.248 14.741L103.19 12.6216C103.191 12.5601 103.178 12.4993 103.154 12.4428C103.13 12.3864 103.094 12.3356 103.049 12.2935C103.004 12.2515 102.951 12.2191 102.893 12.1985C102.835 12.1779 102.773 12.1694 102.712 12.1737H101.877C101.817 12.1696 101.756 12.1784 101.7 12.1994C101.643 12.2205 101.592 12.2533 101.549 12.2957C101.506 12.338 101.473 12.389 101.452 12.4452C101.43 12.5014 101.421 12.5615 101.425 12.6216V25.4616C101.421 25.5213 101.43 25.5812 101.451 25.6371C101.473 25.6931 101.506 25.7439 101.548 25.7863C101.591 25.8286 101.642 25.8615 101.698 25.8827C101.754 25.9039 101.814 25.9131 101.874 25.9095H103.13C103.19 25.9131 103.25 25.9039 103.306 25.8827C103.362 25.8615 103.413 25.8286 103.456 25.7863C103.498 25.7439 103.531 25.6931 103.553 25.6371C103.574 25.5812 103.583 25.5213 103.579 25.4616V17.7656C103.789 15.8847 105.228 13.8529 107.982 13.8529C110.527 13.8237 112.234 15.6753 112.234 18.5721V25.4693C112.231 25.529 112.24 25.5889 112.261 25.6448C112.282 25.7008 112.315 25.7516 112.358 25.794C112.4 25.8363 112.451 25.8692 112.507 25.8904C112.564 25.9116 112.624 25.9208 112.683 25.9172H113.918C113.978 25.9208 114.038 25.9116 114.094 25.8904C114.151 25.8692 114.201 25.8363 114.244 25.794C114.286 25.7516 114.319 25.7008 114.341 25.6448C114.362 25.5889 114.371 25.529 114.368 25.4693V18.2935C114.361 14.4424 111.935 11.9043 108.341 11.9043Z" fill="#371E56"/>
<path d="M133.718 11.9043C129.584 11.9043 126.771 15.0089 126.771 19.04C126.771 23.162 129.826 26.1773 134.079 26.1773C136.474 26.1773 138.003 25.4308 139.08 24.655C139.128 24.6207 139.169 24.5768 139.2 24.5261C139.231 24.4754 139.252 24.419 139.26 24.3602C139.268 24.3015 139.265 24.2416 139.249 24.1843C139.234 24.1271 139.206 24.0735 139.169 24.0271L138.66 23.2205C138.506 22.9527 138.302 22.9527 138.061 23.1312C136.973 23.9429 135.648 24.3756 134.289 24.3626C131.323 24.3626 129.138 22.4509 128.838 19.7034H139.643C139.705 19.7102 139.768 19.7034 139.827 19.6837C139.886 19.664 139.94 19.6318 139.986 19.5892C140.031 19.5467 140.067 19.4948 140.091 19.4372C140.114 19.3796 140.125 19.3176 140.122 19.2555V18.7784C140.125 14.681 137.49 11.9043 133.718 11.9043ZM138.089 17.9657H128.889C129.308 15.4275 131.195 13.7252 133.77 13.7252C136.076 13.7252 137.873 15.3675 138.083 17.9056L138.089 17.9657Z" fill="#371E56"/>
<path d="M155.268 12.1716H154.309C154.249 12.1679 154.189 12.1771 154.133 12.1984C154.076 12.2198 154.025 12.2528 153.983 12.2953C153.94 12.3378 153.907 12.3888 153.886 12.445C153.865 12.5011 153.856 12.5611 153.86 12.621L153.8 14.6512C152.841 13.1582 151.021 11.9053 148.318 11.9053C144.575 11.9037 141.701 14.9483 141.701 19.0395C141.701 23.1307 144.634 26.1768 148.379 26.1768C150.774 26.1768 152.512 25.0993 153.59 23.6386V25.3964C153.59 28.0838 151.673 30.1433 148.349 30.1433C146.728 30.1611 145.133 29.7352 143.737 28.9119C143.469 28.758 143.259 28.7919 143.109 29.0658L142.6 29.9016C142.445 30.171 142.51 30.3803 142.754 30.5296C143.989 31.2761 145.719 31.9919 148.473 31.9919C153.175 31.9919 155.728 29.0366 155.728 25.1532V12.621C155.728 12.5611 155.716 12.5018 155.693 12.4466C155.67 12.3914 155.636 12.3413 155.593 12.2994C155.55 12.2575 155.499 12.2246 155.443 12.2026C155.387 12.1807 155.328 12.1701 155.268 12.1716ZM148.738 24.2358C146.043 24.2358 143.827 22.0255 143.827 19.0395C143.827 16.0534 146.043 13.8431 148.738 13.8431C151.704 13.8431 153.71 16.0534 153.71 19.0395C153.71 22.0563 151.704 24.2358 148.738 24.2358Z" fill="#371E56"/>
<path d="M198.274 7.69607H197.105C197.045 7.69248 196.985 7.70161 196.929 7.72285C196.873 7.74409 196.822 7.77696 196.779 7.81929C196.737 7.86162 196.704 7.91245 196.683 7.96842C196.661 8.02439 196.652 8.08423 196.656 8.14398V14.6502C195.702 13.111 193.877 11.9043 191.295 11.9043C187.552 11.9043 184.678 14.9488 184.678 19.04C184.678 23.1312 187.611 26.1773 191.355 26.1773C193.93 26.1773 195.758 24.9828 196.806 23.4067L196.866 25.4662C196.862 25.5259 196.871 25.5857 196.893 25.6417C196.914 25.6977 196.947 25.7485 196.989 25.7908C197.032 25.8332 197.083 25.866 197.139 25.8873C197.195 25.9085 197.255 25.9177 197.315 25.9141H198.274C198.334 25.9177 198.394 25.9085 198.45 25.8873C198.506 25.866 198.557 25.8332 198.599 25.7908C198.642 25.7485 198.675 25.6977 198.696 25.6417C198.717 25.5857 198.726 25.5259 198.723 25.4662V8.1409C198.726 8.0814 198.716 8.0219 198.695 7.9663C198.673 7.9107 198.64 7.86026 198.598 7.81827C198.556 7.77628 198.505 7.74369 198.449 7.72263C198.393 7.70157 198.333 7.69252 198.274 7.69607ZM191.712 24.2363C189.017 24.2363 186.8 22.026 186.8 19.04C186.8 16.0539 189.017 13.8436 191.712 13.8436C194.677 13.8436 196.682 16.0539 196.682 19.04C196.685 22.0568 194.68 24.2363 191.712 24.2363Z" fill="#371E56"/>
<path d="M214.557 12.1721H213.598C213.538 12.1685 213.478 12.1777 213.422 12.1989C213.366 12.2201 213.315 12.253 213.273 12.2953C213.23 12.3377 213.197 12.3885 213.176 12.4445C213.155 12.5004 213.145 12.5603 213.149 12.62L213.083 14.6502C212.156 13.1418 210.275 11.9043 207.58 11.9043C203.835 11.9043 200.961 14.9488 200.961 19.04C200.961 23.1312 203.894 26.1773 207.638 26.1773C210.215 26.1773 212.041 25.0121 213.089 23.4298L213.149 25.46C213.145 25.5198 213.155 25.5796 213.176 25.6356C213.197 25.6916 213.23 25.7424 213.273 25.7847C213.315 25.8271 213.366 25.8599 213.422 25.8812C213.478 25.9024 213.538 25.9115 213.598 25.908H214.557C214.617 25.9115 214.677 25.9024 214.733 25.8812C214.789 25.8599 214.84 25.8271 214.882 25.7847C214.925 25.7424 214.958 25.6916 214.979 25.6356C215 25.5796 215.009 25.5198 215.006 25.46V12.6216C215.01 12.5617 215.001 12.5017 214.98 12.4455C214.958 12.3894 214.925 12.3383 214.883 12.2958C214.84 12.2533 214.789 12.2203 214.733 12.199C214.677 12.1777 214.617 12.1685 214.557 12.1721ZM207.998 24.2364C205.303 24.2364 203.088 22.0261 203.088 19.04C203.088 16.054 205.303 13.8437 207.998 13.8437C210.963 13.8437 212.97 16.054 212.97 19.04C212.964 22.0569 210.957 24.2364 207.992 24.2364H207.998Z" fill="#371E56"/>
<path d="M97.5841 12.1719H96.3554C96.1073 12.1719 95.9062 12.3724 95.9062 12.6198V25.4598C95.9062 25.7072 96.1073 25.9077 96.3554 25.9077H97.5841C97.8322 25.9077 98.0333 25.7072 98.0333 25.4598V12.6198C98.0333 12.3724 97.8322 12.1719 97.5841 12.1719Z" fill="#371E56"/>
<path d="M181.653 12.1721H180.694C180.634 12.1685 180.574 12.1777 180.518 12.1989C180.462 12.2201 180.411 12.253 180.368 12.2953C180.326 12.3377 180.293 12.3885 180.272 12.4445C180.25 12.5004 180.241 12.5603 180.245 12.62L180.185 14.621C179.228 13.128 177.371 11.9043 174.676 11.9043C170.932 11.9043 168.057 14.9488 168.057 19.04C168.057 23.1312 170.989 26.1773 174.734 26.1773C177.31 26.1773 179.136 25.0121 180.185 23.4298L180.245 25.46C180.241 25.5198 180.25 25.5796 180.272 25.6356C180.293 25.6916 180.326 25.7424 180.368 25.7847C180.411 25.8271 180.462 25.8599 180.518 25.8812C180.574 25.9024 180.634 25.9115 180.694 25.908H181.653C181.712 25.9115 181.772 25.9024 181.829 25.8812C181.885 25.8599 181.936 25.8271 181.978 25.7847C182.021 25.7424 182.054 25.6916 182.075 25.6356C182.096 25.5796 182.105 25.5198 182.102 25.46V12.6216C182.106 12.5617 182.097 12.5017 182.075 12.4455C182.054 12.3894 182.021 12.3383 181.979 12.2958C181.936 12.2533 181.885 12.2203 181.829 12.199C181.773 12.1777 181.713 12.1685 181.653 12.1721ZM175.094 24.2364C172.399 24.2364 170.184 22.0261 170.184 19.04C170.184 16.054 172.399 13.8437 175.094 13.8437C178.059 13.8437 180.066 16.054 180.066 19.04C180.066 22.0569 178.059 24.2364 175.094 24.2364Z" fill="#371E56"/>
<path d="M167.605 12.6216C166.812 12.1506 165.765 11.9506 164.623 12.0645C163.062 12.2184 161.738 12.988 161.082 14.6472L160.996 12.6216C160.996 12.5603 160.983 12.4995 160.959 12.4432C160.934 12.3869 160.899 12.3361 160.854 12.2941C160.809 12.2521 160.756 12.2198 160.698 12.1991C160.64 12.1783 160.579 12.1697 160.517 12.1737H159.559C159.439 12.1737 159.325 12.2209 159.241 12.3049C159.157 12.3889 159.109 12.5029 159.109 12.6216V25.4617C159.109 25.5805 159.157 25.6944 159.241 25.7784C159.325 25.8624 159.439 25.9096 159.559 25.9096H160.786C160.905 25.9096 161.019 25.8624 161.103 25.7784C161.188 25.6944 161.235 25.5805 161.235 25.4617V17.9196C161.399 15.8063 162.402 14.0716 164.606 13.7314C165.325 13.6441 166.055 13.7649 166.707 14.0793C166.804 14.1304 166.917 14.1442 167.024 14.1181C167.131 14.0921 167.225 14.0279 167.287 13.9377L167.75 13.265C167.786 13.214 167.81 13.1563 167.822 13.0955C167.833 13.0347 167.832 12.9721 167.819 12.9117C167.805 12.8513 167.779 12.7944 167.742 12.7445C167.706 12.6945 167.659 12.6527 167.605 12.6216Z" fill="#371E56"/>
<path d="M125.902 23.704C125.727 23.4285 125.551 23.333 125.318 23.5208C124.784 23.9503 123.863 24.4643 122.722 24.2519C121.233 23.9749 120.195 22.605 120.195 21.0935V13.9039H124.763C124.848 13.9043 124.931 13.8805 125.003 13.8352C125.075 13.79 125.132 13.7251 125.169 13.6484L125.567 12.8126C125.599 12.7443 125.614 12.6689 125.61 12.5934C125.605 12.5179 125.581 12.4448 125.541 12.3808C125.5 12.3169 125.444 12.2643 125.378 12.2278C125.311 12.1913 125.237 12.1722 125.161 12.1723H120.195V8.14112C120.194 8.02286 120.147 7.90972 120.063 7.82639C119.978 7.74305 119.865 7.69629 119.746 7.69629H118.579C118.46 7.69629 118.346 7.74348 118.262 7.82748C118.177 7.91148 118.13 8.0254 118.13 8.1442V12.1723H115.733C115.674 12.1723 115.616 12.1839 115.561 12.2064C115.507 12.2289 115.457 12.262 115.416 12.3036C115.374 12.3452 115.341 12.3946 115.319 12.4489C115.296 12.5032 115.285 12.5614 115.285 12.6202V13.456C115.285 13.5748 115.332 13.6887 115.417 13.7727C115.501 13.8567 115.615 13.9039 115.734 13.9039H118.099V21.429C118.099 24.4751 120.135 26.1775 122.921 26.1775C124.852 26.1775 125.991 25.3371 126.285 25.0723C126.373 25.0062 126.433 24.9098 126.454 24.8018C126.476 24.6937 126.456 24.5817 126.399 24.4874C126.285 24.3074 126.204 24.1765 125.902 23.704Z" fill="#371E56"/>
<path d="M91.7928 12.1721H89.4064C89.2531 12.1721 89.1041 12.2227 88.9827 12.316C88.8612 12.4093 88.7741 12.54 88.7349 12.6878L88.4988 13.5728C87.4877 12.4245 86.2251 11.9043 84.4638 11.9043C80.6389 11.9043 77.7539 14.9673 77.7539 19.0308C77.7539 23.0943 80.6003 26.1573 84.3759 26.1573C85.1801 26.1706 85.9781 26.0154 86.7183 25.7017C87.4586 25.388 88.1246 24.9229 88.6732 24.3364L88.7334 25.2169C88.7343 25.3119 88.7549 25.4056 88.7939 25.4923C88.833 25.579 88.8896 25.6566 88.9602 25.7204C89.0308 25.7842 89.1139 25.8326 89.2043 25.8628C89.2946 25.893 89.3902 25.9042 89.4851 25.8956H91.7928C92.2311 25.8956 92.5151 25.6232 92.5151 25.203V12.8648C92.5151 12.4446 92.2311 12.1721 91.7928 12.1721ZM87.7254 21.589C87.0926 22.2293 86.2173 22.5679 85.1955 22.5679C83.2089 22.5679 81.7101 21.0472 81.7101 19.0277C81.7101 17.0083 83.2089 15.4876 85.1955 15.4876C87.2793 15.4876 88.6794 16.9098 88.6794 19.0277C88.6999 19.4965 88.6261 19.9647 88.4622 20.4046C88.2984 20.8445 88.0479 21.2472 87.7254 21.589Z" fill="#371E56"/>
<path d="M61.0629 11.9072C56.9307 11.9072 53.6074 14.9856 53.6074 19.043C53.6074 23.1003 56.9307 26.1772 61.0629 26.1772C65.195 26.1772 68.5168 23.0988 68.5168 19.043C68.5168 14.9872 65.1935 11.9072 61.0629 11.9072ZM61.0629 22.6247C59.0856 22.6247 57.559 21.0424 57.559 19.043C57.559 17.0712 59.0856 15.4597 61.0629 15.4597C63.0695 15.4597 64.5653 17.0712 64.5653 19.043C64.5653 21.0424 63.068 22.6262 61.0629 22.6262V22.6247Z" fill="#371E56"/>
<path d="M74.7202 12.1719H70.5016C70.3175 12.1723 70.1411 12.2454 70.0109 12.3752C69.8807 12.505 69.8074 12.6809 69.807 12.8645V14.4422C69.8074 14.6258 69.8807 14.8017 70.0109 14.9315C70.1411 15.0613 70.3175 15.1344 70.5016 15.1348H71.4278V26.0031C71.4265 26.5356 71.214 27.046 70.8365 27.4227C70.4591 27.7994 69.9474 28.0117 69.4134 28.0133C69.2975 28.0133 69.1864 28.0592 69.1045 28.1409C69.0226 28.2226 68.9766 28.3334 68.9766 28.4489V31.5535C68.9766 31.6688 69.0224 31.7793 69.104 31.861C69.1856 31.9426 69.2963 31.9887 69.4119 31.9891C71.0037 31.9887 72.5302 31.3578 73.6556 30.2353C74.781 29.1128 75.4133 27.5904 75.4133 26.0031V12.8645C75.4133 12.6811 75.3403 12.5051 75.2104 12.3753C75.0804 12.2454 74.9042 12.1723 74.7202 12.1719Z" fill="#371E56"/>
<path d="M73.384 5.36914C72.0349 5.39685 70.9961 6.32037 70.9961 7.69333C70.9961 9.0663 72.0349 10.0175 73.384 10.0175C74.7593 10.0175 75.8275 9.06476 75.8275 7.69333C75.8275 6.32191 74.7593 5.36914 73.384 5.36914Z" fill="#371E56"/>
<path d="M52.2572 22.4911C52.2092 22.3767 52.1236 22.2818 52.0146 22.222C51.9056 22.1622 51.7795 22.1409 51.6568 22.1617C51.4785 22.1974 51.2968 22.2129 51.115 22.2079C49.9758 22.1155 49.3106 21.3059 49.3106 20.1931V8.38585C49.3097 8.20375 49.2371 8.02928 49.1082 7.90023C48.9794 7.77117 48.8047 7.69791 48.6221 7.69629H46.0227C45.8385 7.69629 45.6618 7.76926 45.5316 7.89916C45.4013 8.02905 45.3281 8.20523 45.3281 8.38893V20.1961C45.3281 23.6948 47.8303 26.1821 51.3311 26.1821C51.8546 26.1786 52.3747 26.0983 52.8747 25.9435C52.9676 25.915 53.0536 25.8673 53.1269 25.8037C53.2003 25.74 53.2595 25.6617 53.3006 25.5738C53.3418 25.4859 53.364 25.3904 53.3659 25.2934C53.3678 25.1965 53.3492 25.1002 53.3115 25.0108L52.2572 22.4911Z" fill="#371E56"/>
</g>
<defs>
<linearGradient id="paint0_linear" x1="14.2648" y1="35.1427" x2="23.1722" y2="15.222" gradientUnits="userSpaceOnUse">
<stop offset="0.29" stop-color="#0C9898"/>
<stop offset="1" stop-color="#2BC4C3"/>
</linearGradient>
<clipPath id="clip0">
<rect width="215" height="32" fill="white"/>
</clipPath>
</defs>
</svg>
