<svg width="26" height="24" viewBox="0 0 26 24" fill="none" xmlns="http://www.w3.org/2000/svg">
<path d="M21.1615 8.13546C21.966 8.13546 22.7525 7.89689 23.4214 7.44993C24.0903 7.00296 24.6117 6.36767 24.9196 5.62439C25.2275 4.8811 25.308 4.06322 25.1511 3.27416C24.9941 2.4851 24.6067 1.76029 24.0378 1.19141C23.4689 0.62253 22.7441 0.235116 21.9551 0.0781621C21.166 -0.0787921 20.3481 0.00176248 19.6048 0.309639C18.8615 0.617516 18.2263 1.13889 17.7793 1.80782C17.3323 2.47676 17.0938 3.26321 17.0938 4.06773C17.0938 5.14656 17.5223 6.18121 18.2852 6.94405C19.048 7.7069 20.0827 8.13546 21.1615 8.13546Z" fill="#372158"/>
<path d="M16.9283 20.1328C14.8367 20.1326 12.8077 19.4192 11.1762 18.1103C9.54472 16.8014 8.40833 14.9754 7.95464 12.9335C7.80905 12.4698 7.73497 11.9865 7.73494 11.5005V6.00133C7.71379 4.98962 7.29704 4.02647 6.57405 3.31843C5.85106 2.6104 4.87941 2.21387 3.86747 2.21387C2.85553 2.21387 1.88388 2.6104 1.16089 3.31843C0.437906 4.02647 0.0211499 4.98962 0 6.00133L0 11.3095C0 18.3499 5.73403 24.138 12.7727 23.9977C15.0293 23.9518 17.2314 23.2967 19.1461 22.1017C21.0608 20.9066 22.6168 19.2161 23.6493 17.2091C22.7906 18.1328 21.7504 18.8693 20.5939 19.3724C19.4374 19.8754 18.1895 20.1343 16.9283 20.1328Z" fill="#2BC4C3"/>
<path d="M25.0335 11.3446C25.0335 11.0493 24.9162 10.766 24.7073 10.5571C24.4985 10.3483 24.2152 10.231 23.9199 10.231H18.3971C18.1017 10.231 17.8184 10.3483 17.6096 10.5571C17.4007 10.766 17.2834 11.0493 17.2834 11.3446V11.5001C17.2824 12.6404 16.8735 13.7427 16.1305 14.6077C15.3876 15.4727 14.3597 16.0434 13.2326 16.2165C12.1056 16.3896 10.9538 16.1537 9.98546 15.5515C9.01716 14.9494 8.29627 14.0206 7.95312 12.9332C8.31577 14.568 9.11817 16.0726 10.2737 17.2845C11.4292 18.4965 12.8938 19.3697 14.5095 19.8098C16.1251 20.25 17.8303 20.2403 19.4408 19.7819C21.0514 19.3235 22.5061 18.4338 23.6478 17.2088C24.561 15.438 25.0362 13.474 25.0335 11.4815V11.3446Z" fill="url(#paint0_linear)"/>
<defs>
<linearGradient id="paint0_linear" x1="10.7078" y1="26.4546" x2="17.4237" y2="11.4731" gradientUnits="userSpaceOnUse">
<stop offset="0.29" stop-color="#0C9898"/>
<stop offset="1" stop-color="#2BC4C3"/>
</linearGradient>
</defs>
</svg>
