<svg width="84" height="20" viewBox="0 0 84 20" fill="none" xmlns="http://www.w3.org/2000/svg">
<path d="M45.2272 14.3145H35.9687V12.2729H43.1395V7.7274H35.9687V5.68499H45.2272V14.3145ZM17.8962 13.822C17.8275 14.4986 17.4894 14.6535 16.8611 14.7202C14.6866 14.9482 12.2798 15.0009 10.026 14.9935C7.7726 15.0009 5.36473 14.9482 3.19086 14.7202C2.56115 14.6535 2.22462 14.4986 2.15524 13.822C2.03109 12.5807 2.02399 11.2984 2.02399 10.0007C2.02399 8.70198 2.03119 7.4197 2.15524 6.17861C2.22462 5.50288 2.56115 5.34733 3.19086 5.28052C5.36483 5.05302 7.7727 5.00052 10.026 5.00669C12.2798 5.00052 14.6866 5.05302 16.861 5.28052C17.4892 5.34744 17.8273 5.50288 17.896 6.17871C18.0209 7.41981 18.0278 8.70208 18.0278 10.001C18.0278 11.2985 18.0209 12.5808 17.896 13.8221L17.8962 13.822ZM78.4991 7.99063C75.897 7.26899 73.2695 6.98507 73.1653 5.67212C73.1682 4.87513 73.8818 4.71474 74.4804 4.71474C74.92 4.71474 75.5467 4.84466 75.9155 5.09028C76.2981 5.346 76.5704 5.71001 76.5791 6.22967V6.22905V6.22977H82.8988C82.7681 1.71402 78.1572 -0.226168 73.7982 0.453984H67.2043L62.4189 9.24377V0.453778H56.4031L50.8356 10.6687V0.453778H29.8044V8.5141L25.4207 0.453778H18.6247V4.86473C16.8708 1.95429 13.6754 0 10.026 0C4.49249 0 0 4.49207 0 10.0008C0 15.5076 4.49249 20.0004 10.0261 20.0004C13.6755 20.0004 16.8709 18.0459 18.6246 15.1357V19.5455H24.9522V11.1528L29.6656 19.5456H50.8946L56.4083 9.79473V19.5456H62.579L68.2488 9.45769C69.4219 10.7002 71.3871 11.2019 73.1891 11.7118C76.2379 12.5806 77.0067 12.8281 77.0067 13.7449C77.0067 14.6426 75.8108 15.1105 75.201 15.1105C74.5075 15.1105 73.9595 14.6931 73.6894 13.9647C73.6191 13.7833 73.5585 13.5235 73.5585 13.1298H66.5011C66.6282 18.8998 73.1023 19.6379 75.1762 19.6379C79.2727 19.6379 83.6541 18.0917 83.6541 13.2988C83.6541 9.92485 81.1011 8.71124 78.499 7.99074" fill="#B91414"/>
<path d="M10.0253 5.95323C7.76906 5.95323 5.95117 7.77122 5.95117 10.0007C5.95117 12.2294 7.76917 14.0479 10.0253 14.0479C12.2812 14.0479 14.0993 12.2293 14.0993 10.0006C14.0993 7.77102 12.2811 5.95312 10.0252 5.95312" fill="#B91414"/>
</svg>
